<mxfile host="app.diagrams.net" agent="Mozilla/5.0 (Macintosh; Intel Mac OS X 10_15_7) AppleWebKit/605.1.15 (KHTML, like Gecko) Version/17.4.1 Safari/605.1.15" version="24.7.4" pages="3">
  <diagram name="Page-1" id="IjUzUbGBAMd8i4lJJz-I">
    <mxGraphModel dx="735" dy="365" grid="0" gridSize="10" guides="1" tooltips="1" connect="1" arrows="1" fold="1" page="0" pageScale="1" pageWidth="827" pageHeight="1169" math="0" shadow="0">
      <root>
        <mxCell id="0" />
        <mxCell id="1" parent="0" />
        <mxCell id="vDzLFBPsjV0zPOTFyY5Q-1" value="" style="verticalLabelPosition=bottom;html=1;verticalAlign=top;align=center;strokeColor=none;fillColor=#00BEF2;shape=mxgraph.azure.storage_blob;" vertex="1" parent="1">
          <mxGeometry y="329" width="50" height="45" as="geometry" />
        </mxCell>
        <mxCell id="vDzLFBPsjV0zPOTFyY5Q-2" value="" style="verticalLabelPosition=bottom;html=1;verticalAlign=top;align=center;strokeColor=none;fillColor=#00BEF2;shape=mxgraph.azure.sql_database_sql_azure;" vertex="1" parent="1">
          <mxGeometry x="291" y="338" width="47.5" height="50" as="geometry" />
        </mxCell>
        <mxCell id="vDzLFBPsjV0zPOTFyY5Q-3" value="" style="image;aspect=fixed;html=1;points=[];align=center;fontSize=12;image=img/lib/azure2/analytics/Power_BI_Embedded.svg;" vertex="1" parent="1">
          <mxGeometry x="157" y="301" width="51" height="68" as="geometry" />
        </mxCell>
      </root>
    </mxGraphModel>
  </diagram>
  <diagram id="tDo-lC12Mr15dhePmAWc" name="Page-2">
    <mxGraphModel dx="1135" dy="765" grid="0" gridSize="10" guides="1" tooltips="1" connect="1" arrows="1" fold="1" page="0" pageScale="1" pageWidth="827" pageHeight="1169" math="0" shadow="0">
      <root>
        <mxCell id="0" />
        <mxCell id="1" parent="0" />
        <mxCell id="MkIn_5rYK_BIbdpMxybD-41" value="" style="rounded=0;whiteSpace=wrap;html=1;fillColor=#002e7a;" vertex="1" parent="1">
          <mxGeometry x="-194" y="-363" width="1541" height="1385" as="geometry" />
        </mxCell>
        <mxCell id="MkIn_5rYK_BIbdpMxybD-42" value="" style="rounded=0;whiteSpace=wrap;html=1;" vertex="1" parent="1">
          <mxGeometry x="-184" y="-351" width="1521" height="1362" as="geometry" />
        </mxCell>
        <mxCell id="wAHOEPbOG4hZvs8cBgcl-1" value="fact_medicalrecords" style="shape=table;startSize=30;container=1;collapsible=1;childLayout=tableLayout;fixedRows=1;rowLines=0;fontStyle=1;align=center;resizeLast=1;html=1;" vertex="1" parent="1">
          <mxGeometry x="280" y="-136" width="303" height="411" as="geometry" />
        </mxCell>
        <mxCell id="wAHOEPbOG4hZvs8cBgcl-2" value="" style="shape=tableRow;horizontal=0;startSize=0;swimlaneHead=0;swimlaneBody=0;fillColor=none;collapsible=0;dropTarget=0;points=[[0,0.5],[1,0.5]];portConstraint=eastwest;top=0;left=0;right=0;bottom=1;" vertex="1" parent="wAHOEPbOG4hZvs8cBgcl-1">
          <mxGeometry y="30" width="303" height="30" as="geometry" />
        </mxCell>
        <mxCell id="wAHOEPbOG4hZvs8cBgcl-3" value="PK" style="shape=partialRectangle;connectable=0;fillColor=none;top=0;left=0;bottom=0;right=0;fontStyle=1;overflow=hidden;whiteSpace=wrap;html=1;" vertex="1" parent="wAHOEPbOG4hZvs8cBgcl-2">
          <mxGeometry width="28.75" height="30" as="geometry">
            <mxRectangle width="28.75" height="30" as="alternateBounds" />
          </mxGeometry>
        </mxCell>
        <mxCell id="wAHOEPbOG4hZvs8cBgcl-4" value="&lt;code style=&quot;font-weight: 400; text-decoration: none;&quot;&gt;record_id&lt;span style=&quot;white-space: pre;&quot;&gt;&#x9;(uuid)&lt;/span&gt;&lt;/code&gt;" style="shape=partialRectangle;connectable=0;fillColor=none;top=0;left=0;bottom=0;right=0;align=left;spacingLeft=6;fontStyle=5;overflow=hidden;whiteSpace=wrap;html=1;" vertex="1" parent="wAHOEPbOG4hZvs8cBgcl-2">
          <mxGeometry x="28.75" width="274.25" height="30" as="geometry">
            <mxRectangle width="274.25" height="30" as="alternateBounds" />
          </mxGeometry>
        </mxCell>
        <mxCell id="wAHOEPbOG4hZvs8cBgcl-5" value="" style="shape=tableRow;horizontal=0;startSize=0;swimlaneHead=0;swimlaneBody=0;fillColor=none;collapsible=0;dropTarget=0;points=[[0,0.5],[1,0.5]];portConstraint=eastwest;top=0;left=0;right=0;bottom=0;" vertex="1" parent="wAHOEPbOG4hZvs8cBgcl-1">
          <mxGeometry y="60" width="303" height="30" as="geometry" />
        </mxCell>
        <mxCell id="wAHOEPbOG4hZvs8cBgcl-6" value="FK" style="shape=partialRectangle;connectable=0;fillColor=none;top=0;left=0;bottom=0;right=0;editable=1;overflow=hidden;whiteSpace=wrap;html=1;" vertex="1" parent="wAHOEPbOG4hZvs8cBgcl-5">
          <mxGeometry width="28.75" height="30" as="geometry">
            <mxRectangle width="28.75" height="30" as="alternateBounds" />
          </mxGeometry>
        </mxCell>
        <mxCell id="wAHOEPbOG4hZvs8cBgcl-7" value="&lt;code&gt;patient_id&lt;span style=&quot;white-space: pre;&quot;&gt;&#x9;(uuid)&lt;/span&gt;&lt;/code&gt;" style="shape=partialRectangle;connectable=0;fillColor=none;top=0;left=0;bottom=0;right=0;align=left;spacingLeft=6;overflow=hidden;whiteSpace=wrap;html=1;" vertex="1" parent="wAHOEPbOG4hZvs8cBgcl-5">
          <mxGeometry x="28.75" width="274.25" height="30" as="geometry">
            <mxRectangle width="274.25" height="30" as="alternateBounds" />
          </mxGeometry>
        </mxCell>
        <mxCell id="wAHOEPbOG4hZvs8cBgcl-8" value="" style="shape=tableRow;horizontal=0;startSize=0;swimlaneHead=0;swimlaneBody=0;fillColor=none;collapsible=0;dropTarget=0;points=[[0,0.5],[1,0.5]];portConstraint=eastwest;top=0;left=0;right=0;bottom=0;" vertex="1" parent="wAHOEPbOG4hZvs8cBgcl-1">
          <mxGeometry y="90" width="303" height="30" as="geometry" />
        </mxCell>
        <mxCell id="wAHOEPbOG4hZvs8cBgcl-9" value="FK" style="shape=partialRectangle;connectable=0;fillColor=none;top=0;left=0;bottom=0;right=0;editable=1;overflow=hidden;whiteSpace=wrap;html=1;" vertex="1" parent="wAHOEPbOG4hZvs8cBgcl-8">
          <mxGeometry width="28.75" height="30" as="geometry">
            <mxRectangle width="28.75" height="30" as="alternateBounds" />
          </mxGeometry>
        </mxCell>
        <mxCell id="wAHOEPbOG4hZvs8cBgcl-10" value="&lt;span style=&quot;font-family: monospace;&quot;&gt;doctor_id&lt;/span&gt;&lt;span style=&quot;font-family: monospace; white-space: pre;&quot;&gt;&#x9;(uuid)&lt;/span&gt;" style="shape=partialRectangle;connectable=0;fillColor=none;top=0;left=0;bottom=0;right=0;align=left;spacingLeft=6;overflow=hidden;whiteSpace=wrap;html=1;" vertex="1" parent="wAHOEPbOG4hZvs8cBgcl-8">
          <mxGeometry x="28.75" width="274.25" height="30" as="geometry">
            <mxRectangle width="274.25" height="30" as="alternateBounds" />
          </mxGeometry>
        </mxCell>
        <mxCell id="wAHOEPbOG4hZvs8cBgcl-11" value="" style="shape=tableRow;horizontal=0;startSize=0;swimlaneHead=0;swimlaneBody=0;fillColor=none;collapsible=0;dropTarget=0;points=[[0,0.5],[1,0.5]];portConstraint=eastwest;top=0;left=0;right=0;bottom=0;" vertex="1" parent="wAHOEPbOG4hZvs8cBgcl-1">
          <mxGeometry y="120" width="303" height="30" as="geometry" />
        </mxCell>
        <mxCell id="wAHOEPbOG4hZvs8cBgcl-12" value="FK" style="shape=partialRectangle;connectable=0;fillColor=none;top=0;left=0;bottom=0;right=0;editable=1;overflow=hidden;whiteSpace=wrap;html=1;" vertex="1" parent="wAHOEPbOG4hZvs8cBgcl-11">
          <mxGeometry width="28.75" height="30" as="geometry">
            <mxRectangle width="28.75" height="30" as="alternateBounds" />
          </mxGeometry>
        </mxCell>
        <mxCell id="wAHOEPbOG4hZvs8cBgcl-13" value="&lt;span style=&quot;font-family: monospace;&quot;&gt;department_id&lt;/span&gt;&lt;span style=&quot;font-family: monospace; white-space: pre;&quot;&gt;&#x9;(int)&lt;/span&gt;" style="shape=partialRectangle;connectable=0;fillColor=none;top=0;left=0;bottom=0;right=0;align=left;spacingLeft=6;overflow=hidden;whiteSpace=wrap;html=1;" vertex="1" parent="wAHOEPbOG4hZvs8cBgcl-11">
          <mxGeometry x="28.75" width="274.25" height="30" as="geometry">
            <mxRectangle width="274.25" height="30" as="alternateBounds" />
          </mxGeometry>
        </mxCell>
        <mxCell id="wAHOEPbOG4hZvs8cBgcl-14" value="" style="shape=tableRow;horizontal=0;startSize=0;swimlaneHead=0;swimlaneBody=0;fillColor=none;collapsible=0;dropTarget=0;points=[[0,0.5],[1,0.5]];portConstraint=eastwest;top=0;left=0;right=0;bottom=0;" vertex="1" parent="wAHOEPbOG4hZvs8cBgcl-1">
          <mxGeometry y="150" width="303" height="30" as="geometry" />
        </mxCell>
        <mxCell id="wAHOEPbOG4hZvs8cBgcl-15" value="" style="shape=partialRectangle;connectable=0;fillColor=none;top=0;left=0;bottom=0;right=0;editable=1;overflow=hidden;whiteSpace=wrap;html=1;" vertex="1" parent="wAHOEPbOG4hZvs8cBgcl-14">
          <mxGeometry width="28.75" height="30" as="geometry">
            <mxRectangle width="28.75" height="30" as="alternateBounds" />
          </mxGeometry>
        </mxCell>
        <mxCell id="wAHOEPbOG4hZvs8cBgcl-16" value="&lt;span style=&quot;font-family: monospace;&quot;&gt;admission_date&lt;/span&gt;&lt;span style=&quot;font-family: monospace; white-space: pre;&quot;&gt;&#x9;(date)&lt;/span&gt;" style="shape=partialRectangle;connectable=0;fillColor=none;top=0;left=0;bottom=0;right=0;align=left;spacingLeft=6;overflow=hidden;whiteSpace=wrap;html=1;" vertex="1" parent="wAHOEPbOG4hZvs8cBgcl-14">
          <mxGeometry x="28.75" width="274.25" height="30" as="geometry">
            <mxRectangle width="274.25" height="30" as="alternateBounds" />
          </mxGeometry>
        </mxCell>
        <mxCell id="wAHOEPbOG4hZvs8cBgcl-17" value="" style="shape=tableRow;horizontal=0;startSize=0;swimlaneHead=0;swimlaneBody=0;fillColor=none;collapsible=0;dropTarget=0;points=[[0,0.5],[1,0.5]];portConstraint=eastwest;top=0;left=0;right=0;bottom=0;" vertex="1" parent="wAHOEPbOG4hZvs8cBgcl-1">
          <mxGeometry y="180" width="303" height="30" as="geometry" />
        </mxCell>
        <mxCell id="wAHOEPbOG4hZvs8cBgcl-18" value="" style="shape=partialRectangle;connectable=0;fillColor=none;top=0;left=0;bottom=0;right=0;editable=1;overflow=hidden;whiteSpace=wrap;html=1;" vertex="1" parent="wAHOEPbOG4hZvs8cBgcl-17">
          <mxGeometry width="28.75" height="30" as="geometry">
            <mxRectangle width="28.75" height="30" as="alternateBounds" />
          </mxGeometry>
        </mxCell>
        <mxCell id="wAHOEPbOG4hZvs8cBgcl-19" value="&lt;span style=&quot;font-family: monospace;&quot;&gt;discharge_date&lt;/span&gt;&lt;span style=&quot;font-family: monospace; white-space: pre;&quot;&gt;&#x9;(date)&lt;/span&gt;" style="shape=partialRectangle;connectable=0;fillColor=none;top=0;left=0;bottom=0;right=0;align=left;spacingLeft=6;overflow=hidden;whiteSpace=wrap;html=1;" vertex="1" parent="wAHOEPbOG4hZvs8cBgcl-17">
          <mxGeometry x="28.75" width="274.25" height="30" as="geometry">
            <mxRectangle width="274.25" height="30" as="alternateBounds" />
          </mxGeometry>
        </mxCell>
        <mxCell id="wAHOEPbOG4hZvs8cBgcl-39" value="" style="shape=tableRow;horizontal=0;startSize=0;swimlaneHead=0;swimlaneBody=0;fillColor=none;collapsible=0;dropTarget=0;points=[[0,0.5],[1,0.5]];portConstraint=eastwest;top=0;left=0;right=0;bottom=0;" vertex="1" parent="wAHOEPbOG4hZvs8cBgcl-1">
          <mxGeometry y="210" width="303" height="30" as="geometry" />
        </mxCell>
        <mxCell id="wAHOEPbOG4hZvs8cBgcl-40" value="" style="shape=partialRectangle;connectable=0;fillColor=none;top=0;left=0;bottom=0;right=0;editable=1;overflow=hidden;whiteSpace=wrap;html=1;" vertex="1" parent="wAHOEPbOG4hZvs8cBgcl-39">
          <mxGeometry width="28.75" height="30" as="geometry">
            <mxRectangle width="28.75" height="30" as="alternateBounds" />
          </mxGeometry>
        </mxCell>
        <mxCell id="wAHOEPbOG4hZvs8cBgcl-41" value="&lt;code&gt;room_number&lt;span style=&quot;white-space: pre;&quot;&gt;&#x9;(int)&lt;/span&gt;&lt;/code&gt;" style="shape=partialRectangle;connectable=0;fillColor=none;top=0;left=0;bottom=0;right=0;align=left;spacingLeft=6;overflow=hidden;whiteSpace=wrap;html=1;" vertex="1" parent="wAHOEPbOG4hZvs8cBgcl-39">
          <mxGeometry x="28.75" width="274.25" height="30" as="geometry">
            <mxRectangle width="274.25" height="30" as="alternateBounds" />
          </mxGeometry>
        </mxCell>
        <mxCell id="wAHOEPbOG4hZvs8cBgcl-42" value="" style="shape=tableRow;horizontal=0;startSize=0;swimlaneHead=0;swimlaneBody=0;fillColor=none;collapsible=0;dropTarget=0;points=[[0,0.5],[1,0.5]];portConstraint=eastwest;top=0;left=0;right=0;bottom=0;" vertex="1" parent="wAHOEPbOG4hZvs8cBgcl-1">
          <mxGeometry y="240" width="303" height="30" as="geometry" />
        </mxCell>
        <mxCell id="wAHOEPbOG4hZvs8cBgcl-43" value="" style="shape=partialRectangle;connectable=0;fillColor=none;top=0;left=0;bottom=0;right=0;editable=1;overflow=hidden;whiteSpace=wrap;html=1;" vertex="1" parent="wAHOEPbOG4hZvs8cBgcl-42">
          <mxGeometry width="28.75" height="30" as="geometry">
            <mxRectangle width="28.75" height="30" as="alternateBounds" />
          </mxGeometry>
        </mxCell>
        <mxCell id="wAHOEPbOG4hZvs8cBgcl-44" value="&lt;code&gt;admission_reason&lt;span style=&quot;white-space: pre;&quot;&gt;&amp;nbsp; (varchar 255)&lt;/span&gt;&lt;/code&gt;" style="shape=partialRectangle;connectable=0;fillColor=none;top=0;left=0;bottom=0;right=0;align=left;spacingLeft=6;overflow=hidden;whiteSpace=wrap;html=1;" vertex="1" parent="wAHOEPbOG4hZvs8cBgcl-42">
          <mxGeometry x="28.75" width="274.25" height="30" as="geometry">
            <mxRectangle width="274.25" height="30" as="alternateBounds" />
          </mxGeometry>
        </mxCell>
        <mxCell id="wAHOEPbOG4hZvs8cBgcl-45" value="" style="shape=tableRow;horizontal=0;startSize=0;swimlaneHead=0;swimlaneBody=0;fillColor=none;collapsible=0;dropTarget=0;points=[[0,0.5],[1,0.5]];portConstraint=eastwest;top=0;left=0;right=0;bottom=0;" vertex="1" parent="wAHOEPbOG4hZvs8cBgcl-1">
          <mxGeometry y="270" width="303" height="30" as="geometry" />
        </mxCell>
        <mxCell id="wAHOEPbOG4hZvs8cBgcl-46" value="" style="shape=partialRectangle;connectable=0;fillColor=none;top=0;left=0;bottom=0;right=0;editable=1;overflow=hidden;whiteSpace=wrap;html=1;" vertex="1" parent="wAHOEPbOG4hZvs8cBgcl-45">
          <mxGeometry width="28.75" height="30" as="geometry">
            <mxRectangle width="28.75" height="30" as="alternateBounds" />
          </mxGeometry>
        </mxCell>
        <mxCell id="wAHOEPbOG4hZvs8cBgcl-47" value="&lt;code&gt;diagnosis&lt;span style=&quot;white-space: pre;&quot;&gt;&#x9;(varchar 255)&lt;/span&gt;&lt;/code&gt;" style="shape=partialRectangle;connectable=0;fillColor=none;top=0;left=0;bottom=0;right=0;align=left;spacingLeft=6;overflow=hidden;whiteSpace=wrap;html=1;" vertex="1" parent="wAHOEPbOG4hZvs8cBgcl-45">
          <mxGeometry x="28.75" width="274.25" height="30" as="geometry">
            <mxRectangle width="274.25" height="30" as="alternateBounds" />
          </mxGeometry>
        </mxCell>
        <mxCell id="wAHOEPbOG4hZvs8cBgcl-54" value="" style="shape=tableRow;horizontal=0;startSize=0;swimlaneHead=0;swimlaneBody=0;fillColor=none;collapsible=0;dropTarget=0;points=[[0,0.5],[1,0.5]];portConstraint=eastwest;top=0;left=0;right=0;bottom=0;" vertex="1" parent="wAHOEPbOG4hZvs8cBgcl-1">
          <mxGeometry y="300" width="303" height="35" as="geometry" />
        </mxCell>
        <mxCell id="wAHOEPbOG4hZvs8cBgcl-55" value="" style="shape=partialRectangle;connectable=0;fillColor=none;top=0;left=0;bottom=0;right=0;editable=1;overflow=hidden;whiteSpace=wrap;html=1;" vertex="1" parent="wAHOEPbOG4hZvs8cBgcl-54">
          <mxGeometry width="28.75" height="35" as="geometry">
            <mxRectangle width="28.75" height="35" as="alternateBounds" />
          </mxGeometry>
        </mxCell>
        <mxCell id="wAHOEPbOG4hZvs8cBgcl-56" value="&lt;code&gt;treatment_description &amp;nbsp;(text)&lt;/code&gt;" style="shape=partialRectangle;connectable=0;fillColor=none;top=0;left=0;bottom=0;right=0;align=left;spacingLeft=6;overflow=hidden;whiteSpace=wrap;html=1;" vertex="1" parent="wAHOEPbOG4hZvs8cBgcl-54">
          <mxGeometry x="28.75" width="274.25" height="35" as="geometry">
            <mxRectangle width="274.25" height="35" as="alternateBounds" />
          </mxGeometry>
        </mxCell>
        <mxCell id="wAHOEPbOG4hZvs8cBgcl-48" value="" style="shape=tableRow;horizontal=0;startSize=0;swimlaneHead=0;swimlaneBody=0;fillColor=none;collapsible=0;dropTarget=0;points=[[0,0.5],[1,0.5]];portConstraint=eastwest;top=0;left=0;right=0;bottom=0;" vertex="1" parent="wAHOEPbOG4hZvs8cBgcl-1">
          <mxGeometry y="335" width="303" height="30" as="geometry" />
        </mxCell>
        <mxCell id="wAHOEPbOG4hZvs8cBgcl-49" value="" style="shape=partialRectangle;connectable=0;fillColor=none;top=0;left=0;bottom=0;right=0;editable=1;overflow=hidden;whiteSpace=wrap;html=1;" vertex="1" parent="wAHOEPbOG4hZvs8cBgcl-48">
          <mxGeometry width="28.75" height="30" as="geometry">
            <mxRectangle width="28.75" height="30" as="alternateBounds" />
          </mxGeometry>
        </mxCell>
        <mxCell id="wAHOEPbOG4hZvs8cBgcl-50" value="&lt;span style=&quot;font-family: monospace;&quot;&gt;prescribed_medications&lt;/span&gt;&lt;span style=&quot;font-family: monospace; white-space: pre;&quot;&gt;&#x9;(varchar 255)&lt;/span&gt;" style="shape=partialRectangle;connectable=0;fillColor=none;top=0;left=0;bottom=0;right=0;align=left;spacingLeft=6;overflow=hidden;whiteSpace=wrap;html=1;" vertex="1" parent="wAHOEPbOG4hZvs8cBgcl-48">
          <mxGeometry x="28.75" width="274.25" height="30" as="geometry">
            <mxRectangle width="274.25" height="30" as="alternateBounds" />
          </mxGeometry>
        </mxCell>
        <mxCell id="MkIn_5rYK_BIbdpMxybD-1" value="" style="shape=tableRow;horizontal=0;startSize=0;swimlaneHead=0;swimlaneBody=0;fillColor=none;collapsible=0;dropTarget=0;points=[[0,0.5],[1,0.5]];portConstraint=eastwest;top=0;left=0;right=0;bottom=0;" vertex="1" parent="wAHOEPbOG4hZvs8cBgcl-1">
          <mxGeometry y="365" width="303" height="30" as="geometry" />
        </mxCell>
        <mxCell id="MkIn_5rYK_BIbdpMxybD-2" value="" style="shape=partialRectangle;connectable=0;fillColor=none;top=0;left=0;bottom=0;right=0;editable=1;overflow=hidden;whiteSpace=wrap;html=1;" vertex="1" parent="MkIn_5rYK_BIbdpMxybD-1">
          <mxGeometry width="28.75" height="30" as="geometry">
            <mxRectangle width="28.75" height="30" as="alternateBounds" />
          </mxGeometry>
        </mxCell>
        <mxCell id="MkIn_5rYK_BIbdpMxybD-3" value="&lt;span style=&quot;font-family: monospace;&quot;&gt;attending_physician&lt;/span&gt;&lt;span style=&quot;font-family: monospace; white-space: pre;&quot;&gt;&#x9;(varchar 255)&lt;/span&gt;" style="shape=partialRectangle;connectable=0;fillColor=none;top=0;left=0;bottom=0;right=0;align=left;spacingLeft=6;overflow=hidden;whiteSpace=wrap;html=1;" vertex="1" parent="MkIn_5rYK_BIbdpMxybD-1">
          <mxGeometry x="28.75" width="274.25" height="30" as="geometry">
            <mxRectangle width="274.25" height="30" as="alternateBounds" />
          </mxGeometry>
        </mxCell>
        <mxCell id="wAHOEPbOG4hZvs8cBgcl-57" value="fact_labresults" style="shape=table;startSize=30;container=1;collapsible=1;childLayout=tableLayout;fixedRows=1;rowLines=0;fontStyle=1;align=center;resizeLast=1;html=1;" vertex="1" parent="1">
          <mxGeometry x="-92" y="-136" width="257" height="304" as="geometry" />
        </mxCell>
        <mxCell id="wAHOEPbOG4hZvs8cBgcl-58" value="" style="shape=tableRow;horizontal=0;startSize=0;swimlaneHead=0;swimlaneBody=0;fillColor=none;collapsible=0;dropTarget=0;points=[[0,0.5],[1,0.5]];portConstraint=eastwest;top=0;left=0;right=0;bottom=1;" vertex="1" parent="wAHOEPbOG4hZvs8cBgcl-57">
          <mxGeometry y="30" width="257" height="30" as="geometry" />
        </mxCell>
        <mxCell id="wAHOEPbOG4hZvs8cBgcl-59" value="PK" style="shape=partialRectangle;connectable=0;fillColor=none;top=0;left=0;bottom=0;right=0;fontStyle=1;overflow=hidden;whiteSpace=wrap;html=1;" vertex="1" parent="wAHOEPbOG4hZvs8cBgcl-58">
          <mxGeometry width="31.75" height="30" as="geometry">
            <mxRectangle width="31.75" height="30" as="alternateBounds" />
          </mxGeometry>
        </mxCell>
        <mxCell id="wAHOEPbOG4hZvs8cBgcl-60" value="&lt;code style=&quot;font-weight: 400; text-decoration: none;&quot;&gt;result_id&lt;span style=&quot;white-space: pre;&quot;&gt;&#x9;(uuid)&lt;/span&gt;&lt;/code&gt;" style="shape=partialRectangle;connectable=0;fillColor=none;top=0;left=0;bottom=0;right=0;align=left;spacingLeft=6;fontStyle=5;overflow=hidden;whiteSpace=wrap;html=1;" vertex="1" parent="wAHOEPbOG4hZvs8cBgcl-58">
          <mxGeometry x="31.75" width="225.25" height="30" as="geometry">
            <mxRectangle width="225.25" height="30" as="alternateBounds" />
          </mxGeometry>
        </mxCell>
        <mxCell id="wAHOEPbOG4hZvs8cBgcl-61" value="" style="shape=tableRow;horizontal=0;startSize=0;swimlaneHead=0;swimlaneBody=0;fillColor=none;collapsible=0;dropTarget=0;points=[[0,0.5],[1,0.5]];portConstraint=eastwest;top=0;left=0;right=0;bottom=0;" vertex="1" parent="wAHOEPbOG4hZvs8cBgcl-57">
          <mxGeometry y="60" width="257" height="30" as="geometry" />
        </mxCell>
        <mxCell id="wAHOEPbOG4hZvs8cBgcl-62" value="FK" style="shape=partialRectangle;connectable=0;fillColor=none;top=0;left=0;bottom=0;right=0;editable=1;overflow=hidden;whiteSpace=wrap;html=1;" vertex="1" parent="wAHOEPbOG4hZvs8cBgcl-61">
          <mxGeometry width="31.75" height="30" as="geometry">
            <mxRectangle width="31.75" height="30" as="alternateBounds" />
          </mxGeometry>
        </mxCell>
        <mxCell id="wAHOEPbOG4hZvs8cBgcl-63" value="&lt;code&gt;patient_id&lt;span style=&quot;white-space: pre;&quot;&gt;&#x9;(uuid)&lt;/span&gt;&lt;/code&gt;" style="shape=partialRectangle;connectable=0;fillColor=none;top=0;left=0;bottom=0;right=0;align=left;spacingLeft=6;overflow=hidden;whiteSpace=wrap;html=1;" vertex="1" parent="wAHOEPbOG4hZvs8cBgcl-61">
          <mxGeometry x="31.75" width="225.25" height="30" as="geometry">
            <mxRectangle width="225.25" height="30" as="alternateBounds" />
          </mxGeometry>
        </mxCell>
        <mxCell id="wAHOEPbOG4hZvs8cBgcl-64" value="" style="shape=tableRow;horizontal=0;startSize=0;swimlaneHead=0;swimlaneBody=0;fillColor=none;collapsible=0;dropTarget=0;points=[[0,0.5],[1,0.5]];portConstraint=eastwest;top=0;left=0;right=0;bottom=0;" vertex="1" parent="wAHOEPbOG4hZvs8cBgcl-57">
          <mxGeometry y="90" width="257" height="30" as="geometry" />
        </mxCell>
        <mxCell id="wAHOEPbOG4hZvs8cBgcl-65" value="" style="shape=partialRectangle;connectable=0;fillColor=none;top=0;left=0;bottom=0;right=0;editable=1;overflow=hidden;whiteSpace=wrap;html=1;" vertex="1" parent="wAHOEPbOG4hZvs8cBgcl-64">
          <mxGeometry width="31.75" height="30" as="geometry">
            <mxRectangle width="31.75" height="30" as="alternateBounds" />
          </mxGeometry>
        </mxCell>
        <mxCell id="wAHOEPbOG4hZvs8cBgcl-66" value="&lt;code&gt;test_name&lt;span style=&quot;white-space: pre;&quot;&gt;&#x9;(varchar 100)&lt;/span&gt;&lt;/code&gt;" style="shape=partialRectangle;connectable=0;fillColor=none;top=0;left=0;bottom=0;right=0;align=left;spacingLeft=6;overflow=hidden;whiteSpace=wrap;html=1;" vertex="1" parent="wAHOEPbOG4hZvs8cBgcl-64">
          <mxGeometry x="31.75" width="225.25" height="30" as="geometry">
            <mxRectangle width="225.25" height="30" as="alternateBounds" />
          </mxGeometry>
        </mxCell>
        <mxCell id="wAHOEPbOG4hZvs8cBgcl-67" value="" style="shape=tableRow;horizontal=0;startSize=0;swimlaneHead=0;swimlaneBody=0;fillColor=none;collapsible=0;dropTarget=0;points=[[0,0.5],[1,0.5]];portConstraint=eastwest;top=0;left=0;right=0;bottom=0;" vertex="1" parent="wAHOEPbOG4hZvs8cBgcl-57">
          <mxGeometry y="120" width="257" height="30" as="geometry" />
        </mxCell>
        <mxCell id="wAHOEPbOG4hZvs8cBgcl-68" value="" style="shape=partialRectangle;connectable=0;fillColor=none;top=0;left=0;bottom=0;right=0;editable=1;overflow=hidden;whiteSpace=wrap;html=1;" vertex="1" parent="wAHOEPbOG4hZvs8cBgcl-67">
          <mxGeometry width="31.75" height="30" as="geometry">
            <mxRectangle width="31.75" height="30" as="alternateBounds" />
          </mxGeometry>
        </mxCell>
        <mxCell id="wAHOEPbOG4hZvs8cBgcl-69" value="&lt;code&gt;test_date&lt;span style=&quot;white-space: pre;&quot;&gt;&#x9;(date)&lt;/span&gt;&lt;/code&gt;" style="shape=partialRectangle;connectable=0;fillColor=none;top=0;left=0;bottom=0;right=0;align=left;spacingLeft=6;overflow=hidden;whiteSpace=wrap;html=1;" vertex="1" parent="wAHOEPbOG4hZvs8cBgcl-67">
          <mxGeometry x="31.75" width="225.25" height="30" as="geometry">
            <mxRectangle width="225.25" height="30" as="alternateBounds" />
          </mxGeometry>
        </mxCell>
        <mxCell id="wAHOEPbOG4hZvs8cBgcl-70" value="" style="shape=tableRow;horizontal=0;startSize=0;swimlaneHead=0;swimlaneBody=0;fillColor=none;collapsible=0;dropTarget=0;points=[[0,0.5],[1,0.5]];portConstraint=eastwest;top=0;left=0;right=0;bottom=0;" vertex="1" parent="wAHOEPbOG4hZvs8cBgcl-57">
          <mxGeometry y="150" width="257" height="30" as="geometry" />
        </mxCell>
        <mxCell id="wAHOEPbOG4hZvs8cBgcl-71" value="" style="shape=partialRectangle;connectable=0;fillColor=none;top=0;left=0;bottom=0;right=0;editable=1;overflow=hidden;whiteSpace=wrap;html=1;" vertex="1" parent="wAHOEPbOG4hZvs8cBgcl-70">
          <mxGeometry width="31.75" height="30" as="geometry">
            <mxRectangle width="31.75" height="30" as="alternateBounds" />
          </mxGeometry>
        </mxCell>
        <mxCell id="wAHOEPbOG4hZvs8cBgcl-72" value="&lt;code&gt;test_result&lt;span style=&quot;white-space: pre;&quot;&gt;&#x9;(varchar 255)&lt;/span&gt;&lt;/code&gt;" style="shape=partialRectangle;connectable=0;fillColor=none;top=0;left=0;bottom=0;right=0;align=left;spacingLeft=6;overflow=hidden;whiteSpace=wrap;html=1;" vertex="1" parent="wAHOEPbOG4hZvs8cBgcl-70">
          <mxGeometry x="31.75" width="225.25" height="30" as="geometry">
            <mxRectangle width="225.25" height="30" as="alternateBounds" />
          </mxGeometry>
        </mxCell>
        <mxCell id="wAHOEPbOG4hZvs8cBgcl-73" value="" style="shape=tableRow;horizontal=0;startSize=0;swimlaneHead=0;swimlaneBody=0;fillColor=none;collapsible=0;dropTarget=0;points=[[0,0.5],[1,0.5]];portConstraint=eastwest;top=0;left=0;right=0;bottom=0;" vertex="1" parent="wAHOEPbOG4hZvs8cBgcl-57">
          <mxGeometry y="180" width="257" height="30" as="geometry" />
        </mxCell>
        <mxCell id="wAHOEPbOG4hZvs8cBgcl-74" value="" style="shape=partialRectangle;connectable=0;fillColor=none;top=0;left=0;bottom=0;right=0;editable=1;overflow=hidden;whiteSpace=wrap;html=1;" vertex="1" parent="wAHOEPbOG4hZvs8cBgcl-73">
          <mxGeometry width="31.75" height="30" as="geometry">
            <mxRectangle width="31.75" height="30" as="alternateBounds" />
          </mxGeometry>
        </mxCell>
        <mxCell id="wAHOEPbOG4hZvs8cBgcl-75" value="&lt;code&gt;reference_range&lt;/code&gt;&lt;span style=&quot;font-family: monospace; white-space: pre;&quot;&gt;&#x9;(varchar 50)&lt;/span&gt;" style="shape=partialRectangle;connectable=0;fillColor=none;top=0;left=0;bottom=0;right=0;align=left;spacingLeft=6;overflow=hidden;whiteSpace=wrap;html=1;" vertex="1" parent="wAHOEPbOG4hZvs8cBgcl-73">
          <mxGeometry x="31.75" width="225.25" height="30" as="geometry">
            <mxRectangle width="225.25" height="30" as="alternateBounds" />
          </mxGeometry>
        </mxCell>
        <mxCell id="wAHOEPbOG4hZvs8cBgcl-76" value="" style="shape=tableRow;horizontal=0;startSize=0;swimlaneHead=0;swimlaneBody=0;fillColor=none;collapsible=0;dropTarget=0;points=[[0,0.5],[1,0.5]];portConstraint=eastwest;top=0;left=0;right=0;bottom=0;" vertex="1" parent="wAHOEPbOG4hZvs8cBgcl-57">
          <mxGeometry y="210" width="257" height="30" as="geometry" />
        </mxCell>
        <mxCell id="wAHOEPbOG4hZvs8cBgcl-77" value="" style="shape=partialRectangle;connectable=0;fillColor=none;top=0;left=0;bottom=0;right=0;editable=1;overflow=hidden;whiteSpace=wrap;html=1;" vertex="1" parent="wAHOEPbOG4hZvs8cBgcl-76">
          <mxGeometry width="31.75" height="30" as="geometry">
            <mxRectangle width="31.75" height="30" as="alternateBounds" />
          </mxGeometry>
        </mxCell>
        <mxCell id="wAHOEPbOG4hZvs8cBgcl-78" value="&lt;code&gt;lab_technician&lt;/code&gt;&lt;span style=&quot;font-family: monospace; white-space: pre;&quot;&gt;&#x9;(varchar 50)&lt;/span&gt;" style="shape=partialRectangle;connectable=0;fillColor=none;top=0;left=0;bottom=0;right=0;align=left;spacingLeft=6;overflow=hidden;whiteSpace=wrap;html=1;" vertex="1" parent="wAHOEPbOG4hZvs8cBgcl-76">
          <mxGeometry x="31.75" width="225.25" height="30" as="geometry">
            <mxRectangle width="225.25" height="30" as="alternateBounds" />
          </mxGeometry>
        </mxCell>
        <mxCell id="wAHOEPbOG4hZvs8cBgcl-79" value="" style="shape=tableRow;horizontal=0;startSize=0;swimlaneHead=0;swimlaneBody=0;fillColor=none;collapsible=0;dropTarget=0;points=[[0,0.5],[1,0.5]];portConstraint=eastwest;top=0;left=0;right=0;bottom=0;" vertex="1" parent="wAHOEPbOG4hZvs8cBgcl-57">
          <mxGeometry y="240" width="257" height="30" as="geometry" />
        </mxCell>
        <mxCell id="wAHOEPbOG4hZvs8cBgcl-80" value="" style="shape=partialRectangle;connectable=0;fillColor=none;top=0;left=0;bottom=0;right=0;editable=1;overflow=hidden;whiteSpace=wrap;html=1;" vertex="1" parent="wAHOEPbOG4hZvs8cBgcl-79">
          <mxGeometry width="31.75" height="30" as="geometry">
            <mxRectangle width="31.75" height="30" as="alternateBounds" />
          </mxGeometry>
        </mxCell>
        <mxCell id="wAHOEPbOG4hZvs8cBgcl-81" value="&lt;code&gt;test_method&lt;/code&gt;&lt;span style=&quot;font-family: monospace; white-space: pre;&quot;&gt;&#x9;(varchar 50)&lt;/span&gt;" style="shape=partialRectangle;connectable=0;fillColor=none;top=0;left=0;bottom=0;right=0;align=left;spacingLeft=6;overflow=hidden;whiteSpace=wrap;html=1;" vertex="1" parent="wAHOEPbOG4hZvs8cBgcl-79">
          <mxGeometry x="31.75" width="225.25" height="30" as="geometry">
            <mxRectangle width="225.25" height="30" as="alternateBounds" />
          </mxGeometry>
        </mxCell>
        <mxCell id="wAHOEPbOG4hZvs8cBgcl-82" value="" style="shape=tableRow;horizontal=0;startSize=0;swimlaneHead=0;swimlaneBody=0;fillColor=none;collapsible=0;dropTarget=0;points=[[0,0.5],[1,0.5]];portConstraint=eastwest;top=0;left=0;right=0;bottom=0;" vertex="1" parent="wAHOEPbOG4hZvs8cBgcl-57">
          <mxGeometry y="270" width="257" height="30" as="geometry" />
        </mxCell>
        <mxCell id="wAHOEPbOG4hZvs8cBgcl-83" value="" style="shape=partialRectangle;connectable=0;fillColor=none;top=0;left=0;bottom=0;right=0;editable=1;overflow=hidden;whiteSpace=wrap;html=1;" vertex="1" parent="wAHOEPbOG4hZvs8cBgcl-82">
          <mxGeometry width="31.75" height="30" as="geometry">
            <mxRectangle width="31.75" height="30" as="alternateBounds" />
          </mxGeometry>
        </mxCell>
        <mxCell id="wAHOEPbOG4hZvs8cBgcl-84" value="&lt;code&gt;lab_location&lt;span style=&quot;white-space: pre;&quot;&gt;&#x9;&lt;/span&gt;&lt;/code&gt;&lt;span style=&quot;font-family: monospace; white-space: pre;&quot;&gt;(varchar 100)&lt;/span&gt;" style="shape=partialRectangle;connectable=0;fillColor=none;top=0;left=0;bottom=0;right=0;align=left;spacingLeft=6;overflow=hidden;whiteSpace=wrap;html=1;" vertex="1" parent="wAHOEPbOG4hZvs8cBgcl-82">
          <mxGeometry x="31.75" width="225.25" height="30" as="geometry">
            <mxRectangle width="225.25" height="30" as="alternateBounds" />
          </mxGeometry>
        </mxCell>
        <mxCell id="wAHOEPbOG4hZvs8cBgcl-91" value="fact_imagingresults" style="shape=table;startSize=30;container=1;collapsible=1;childLayout=tableLayout;fixedRows=1;rowLines=0;fontStyle=1;align=center;resizeLast=1;html=1;" vertex="1" parent="1">
          <mxGeometry x="696" y="-136" width="253" height="244" as="geometry" />
        </mxCell>
        <mxCell id="wAHOEPbOG4hZvs8cBgcl-92" value="" style="shape=tableRow;horizontal=0;startSize=0;swimlaneHead=0;swimlaneBody=0;fillColor=none;collapsible=0;dropTarget=0;points=[[0,0.5],[1,0.5]];portConstraint=eastwest;top=0;left=0;right=0;bottom=1;" vertex="1" parent="wAHOEPbOG4hZvs8cBgcl-91">
          <mxGeometry y="30" width="253" height="30" as="geometry" />
        </mxCell>
        <mxCell id="wAHOEPbOG4hZvs8cBgcl-93" value="PK" style="shape=partialRectangle;connectable=0;fillColor=none;top=0;left=0;bottom=0;right=0;fontStyle=1;overflow=hidden;whiteSpace=wrap;html=1;" vertex="1" parent="wAHOEPbOG4hZvs8cBgcl-92">
          <mxGeometry width="31.75" height="30" as="geometry">
            <mxRectangle width="31.75" height="30" as="alternateBounds" />
          </mxGeometry>
        </mxCell>
        <mxCell id="wAHOEPbOG4hZvs8cBgcl-94" value="&lt;code style=&quot;font-weight: 400; text-decoration: none;&quot;&gt;result_id&lt;span style=&quot;white-space: pre;&quot;&gt;&#x9;(uuid)&lt;/span&gt;&lt;/code&gt;" style="shape=partialRectangle;connectable=0;fillColor=none;top=0;left=0;bottom=0;right=0;align=left;spacingLeft=6;fontStyle=5;overflow=hidden;whiteSpace=wrap;html=1;" vertex="1" parent="wAHOEPbOG4hZvs8cBgcl-92">
          <mxGeometry x="31.75" width="221.25" height="30" as="geometry">
            <mxRectangle width="221.25" height="30" as="alternateBounds" />
          </mxGeometry>
        </mxCell>
        <mxCell id="wAHOEPbOG4hZvs8cBgcl-95" value="" style="shape=tableRow;horizontal=0;startSize=0;swimlaneHead=0;swimlaneBody=0;fillColor=none;collapsible=0;dropTarget=0;points=[[0,0.5],[1,0.5]];portConstraint=eastwest;top=0;left=0;right=0;bottom=0;" vertex="1" parent="wAHOEPbOG4hZvs8cBgcl-91">
          <mxGeometry y="60" width="253" height="30" as="geometry" />
        </mxCell>
        <mxCell id="wAHOEPbOG4hZvs8cBgcl-96" value="FK" style="shape=partialRectangle;connectable=0;fillColor=none;top=0;left=0;bottom=0;right=0;editable=1;overflow=hidden;whiteSpace=wrap;html=1;" vertex="1" parent="wAHOEPbOG4hZvs8cBgcl-95">
          <mxGeometry width="31.75" height="30" as="geometry">
            <mxRectangle width="31.75" height="30" as="alternateBounds" />
          </mxGeometry>
        </mxCell>
        <mxCell id="wAHOEPbOG4hZvs8cBgcl-97" value="&lt;code&gt;patient_id&lt;span style=&quot;white-space: pre;&quot;&gt;&#x9;(uuid)&lt;/span&gt;&lt;/code&gt;" style="shape=partialRectangle;connectable=0;fillColor=none;top=0;left=0;bottom=0;right=0;align=left;spacingLeft=6;overflow=hidden;whiteSpace=wrap;html=1;" vertex="1" parent="wAHOEPbOG4hZvs8cBgcl-95">
          <mxGeometry x="31.75" width="221.25" height="30" as="geometry">
            <mxRectangle width="221.25" height="30" as="alternateBounds" />
          </mxGeometry>
        </mxCell>
        <mxCell id="wAHOEPbOG4hZvs8cBgcl-98" value="" style="shape=tableRow;horizontal=0;startSize=0;swimlaneHead=0;swimlaneBody=0;fillColor=none;collapsible=0;dropTarget=0;points=[[0,0.5],[1,0.5]];portConstraint=eastwest;top=0;left=0;right=0;bottom=0;" vertex="1" parent="wAHOEPbOG4hZvs8cBgcl-91">
          <mxGeometry y="90" width="253" height="30" as="geometry" />
        </mxCell>
        <mxCell id="wAHOEPbOG4hZvs8cBgcl-99" value="" style="shape=partialRectangle;connectable=0;fillColor=none;top=0;left=0;bottom=0;right=0;editable=1;overflow=hidden;whiteSpace=wrap;html=1;" vertex="1" parent="wAHOEPbOG4hZvs8cBgcl-98">
          <mxGeometry width="31.75" height="30" as="geometry">
            <mxRectangle width="31.75" height="30" as="alternateBounds" />
          </mxGeometry>
        </mxCell>
        <mxCell id="wAHOEPbOG4hZvs8cBgcl-100" value="&lt;code&gt;imaging_type&lt;/code&gt;&lt;span style=&quot;font-family: monospace; white-space: pre;&quot;&gt;&#x9;(varchar 50)&lt;/span&gt;" style="shape=partialRectangle;connectable=0;fillColor=none;top=0;left=0;bottom=0;right=0;align=left;spacingLeft=6;overflow=hidden;whiteSpace=wrap;html=1;" vertex="1" parent="wAHOEPbOG4hZvs8cBgcl-98">
          <mxGeometry x="31.75" width="221.25" height="30" as="geometry">
            <mxRectangle width="221.25" height="30" as="alternateBounds" />
          </mxGeometry>
        </mxCell>
        <mxCell id="wAHOEPbOG4hZvs8cBgcl-101" value="" style="shape=tableRow;horizontal=0;startSize=0;swimlaneHead=0;swimlaneBody=0;fillColor=none;collapsible=0;dropTarget=0;points=[[0,0.5],[1,0.5]];portConstraint=eastwest;top=0;left=0;right=0;bottom=0;" vertex="1" parent="wAHOEPbOG4hZvs8cBgcl-91">
          <mxGeometry y="120" width="253" height="30" as="geometry" />
        </mxCell>
        <mxCell id="wAHOEPbOG4hZvs8cBgcl-102" value="" style="shape=partialRectangle;connectable=0;fillColor=none;top=0;left=0;bottom=0;right=0;editable=1;overflow=hidden;whiteSpace=wrap;html=1;" vertex="1" parent="wAHOEPbOG4hZvs8cBgcl-101">
          <mxGeometry width="31.75" height="30" as="geometry">
            <mxRectangle width="31.75" height="30" as="alternateBounds" />
          </mxGeometry>
        </mxCell>
        <mxCell id="wAHOEPbOG4hZvs8cBgcl-103" value="&lt;code&gt;imaging_date&lt;span style=&quot;white-space: pre;&quot;&gt;&#x9;(date)&lt;/span&gt;&lt;/code&gt;" style="shape=partialRectangle;connectable=0;fillColor=none;top=0;left=0;bottom=0;right=0;align=left;spacingLeft=6;overflow=hidden;whiteSpace=wrap;html=1;" vertex="1" parent="wAHOEPbOG4hZvs8cBgcl-101">
          <mxGeometry x="31.75" width="221.25" height="30" as="geometry">
            <mxRectangle width="221.25" height="30" as="alternateBounds" />
          </mxGeometry>
        </mxCell>
        <mxCell id="wAHOEPbOG4hZvs8cBgcl-104" value="" style="shape=tableRow;horizontal=0;startSize=0;swimlaneHead=0;swimlaneBody=0;fillColor=none;collapsible=0;dropTarget=0;points=[[0,0.5],[1,0.5]];portConstraint=eastwest;top=0;left=0;right=0;bottom=0;" vertex="1" parent="wAHOEPbOG4hZvs8cBgcl-91">
          <mxGeometry y="150" width="253" height="30" as="geometry" />
        </mxCell>
        <mxCell id="wAHOEPbOG4hZvs8cBgcl-105" value="" style="shape=partialRectangle;connectable=0;fillColor=none;top=0;left=0;bottom=0;right=0;editable=1;overflow=hidden;whiteSpace=wrap;html=1;" vertex="1" parent="wAHOEPbOG4hZvs8cBgcl-104">
          <mxGeometry width="31.75" height="30" as="geometry">
            <mxRectangle width="31.75" height="30" as="alternateBounds" />
          </mxGeometry>
        </mxCell>
        <mxCell id="wAHOEPbOG4hZvs8cBgcl-106" value="&lt;code&gt;findings&lt;/code&gt;&lt;span style=&quot;font-family: monospace; white-space: pre;&quot;&gt;&#x9;(text)&lt;/span&gt;" style="shape=partialRectangle;connectable=0;fillColor=none;top=0;left=0;bottom=0;right=0;align=left;spacingLeft=6;overflow=hidden;whiteSpace=wrap;html=1;" vertex="1" parent="wAHOEPbOG4hZvs8cBgcl-104">
          <mxGeometry x="31.75" width="221.25" height="30" as="geometry">
            <mxRectangle width="221.25" height="30" as="alternateBounds" />
          </mxGeometry>
        </mxCell>
        <mxCell id="wAHOEPbOG4hZvs8cBgcl-107" value="" style="shape=tableRow;horizontal=0;startSize=0;swimlaneHead=0;swimlaneBody=0;fillColor=none;collapsible=0;dropTarget=0;points=[[0,0.5],[1,0.5]];portConstraint=eastwest;top=0;left=0;right=0;bottom=0;" vertex="1" parent="wAHOEPbOG4hZvs8cBgcl-91">
          <mxGeometry y="180" width="253" height="30" as="geometry" />
        </mxCell>
        <mxCell id="wAHOEPbOG4hZvs8cBgcl-108" value="" style="shape=partialRectangle;connectable=0;fillColor=none;top=0;left=0;bottom=0;right=0;editable=1;overflow=hidden;whiteSpace=wrap;html=1;" vertex="1" parent="wAHOEPbOG4hZvs8cBgcl-107">
          <mxGeometry width="31.75" height="30" as="geometry">
            <mxRectangle width="31.75" height="30" as="alternateBounds" />
          </mxGeometry>
        </mxCell>
        <mxCell id="wAHOEPbOG4hZvs8cBgcl-109" value="&lt;code&gt;imaging_equipment&lt;span style=&quot;white-space: pre;&quot;&gt;(varchar 50)&lt;/span&gt;&lt;/code&gt;" style="shape=partialRectangle;connectable=0;fillColor=none;top=0;left=0;bottom=0;right=0;align=left;spacingLeft=6;overflow=hidden;whiteSpace=wrap;html=1;" vertex="1" parent="wAHOEPbOG4hZvs8cBgcl-107">
          <mxGeometry x="31.75" width="221.25" height="30" as="geometry">
            <mxRectangle width="221.25" height="30" as="alternateBounds" />
          </mxGeometry>
        </mxCell>
        <mxCell id="wAHOEPbOG4hZvs8cBgcl-110" value="" style="shape=tableRow;horizontal=0;startSize=0;swimlaneHead=0;swimlaneBody=0;fillColor=none;collapsible=0;dropTarget=0;points=[[0,0.5],[1,0.5]];portConstraint=eastwest;top=0;left=0;right=0;bottom=0;" vertex="1" parent="wAHOEPbOG4hZvs8cBgcl-91">
          <mxGeometry y="210" width="253" height="30" as="geometry" />
        </mxCell>
        <mxCell id="wAHOEPbOG4hZvs8cBgcl-111" value="" style="shape=partialRectangle;connectable=0;fillColor=none;top=0;left=0;bottom=0;right=0;editable=1;overflow=hidden;whiteSpace=wrap;html=1;" vertex="1" parent="wAHOEPbOG4hZvs8cBgcl-110">
          <mxGeometry width="31.75" height="30" as="geometry">
            <mxRectangle width="31.75" height="30" as="alternateBounds" />
          </mxGeometry>
        </mxCell>
        <mxCell id="wAHOEPbOG4hZvs8cBgcl-112" value="&lt;code&gt;contrast_used&lt;/code&gt;&lt;span style=&quot;font-family: monospace; white-space: pre;&quot;&gt;&#x9;(boolean)&lt;/span&gt;" style="shape=partialRectangle;connectable=0;fillColor=none;top=0;left=0;bottom=0;right=0;align=left;spacingLeft=6;overflow=hidden;whiteSpace=wrap;html=1;" vertex="1" parent="wAHOEPbOG4hZvs8cBgcl-110">
          <mxGeometry x="31.75" width="221.25" height="30" as="geometry">
            <mxRectangle width="221.25" height="30" as="alternateBounds" />
          </mxGeometry>
        </mxCell>
        <mxCell id="wAHOEPbOG4hZvs8cBgcl-119" value="dim_patients" style="shape=table;startSize=30;container=1;collapsible=1;childLayout=tableLayout;fixedRows=1;rowLines=0;fontStyle=1;align=center;resizeLast=1;html=1;" vertex="1" parent="1">
          <mxGeometry x="257" y="343" width="364" height="463" as="geometry" />
        </mxCell>
        <mxCell id="wAHOEPbOG4hZvs8cBgcl-120" value="" style="shape=tableRow;horizontal=0;startSize=0;swimlaneHead=0;swimlaneBody=0;fillColor=none;collapsible=0;dropTarget=0;points=[[0,0.5],[1,0.5]];portConstraint=eastwest;top=0;left=0;right=0;bottom=1;" vertex="1" parent="wAHOEPbOG4hZvs8cBgcl-119">
          <mxGeometry y="30" width="364" height="30" as="geometry" />
        </mxCell>
        <mxCell id="wAHOEPbOG4hZvs8cBgcl-121" value="PK" style="shape=partialRectangle;connectable=0;fillColor=none;top=0;left=0;bottom=0;right=0;fontStyle=1;overflow=hidden;whiteSpace=wrap;html=1;" vertex="1" parent="wAHOEPbOG4hZvs8cBgcl-120">
          <mxGeometry width="30.75" height="30" as="geometry">
            <mxRectangle width="30.75" height="30" as="alternateBounds" />
          </mxGeometry>
        </mxCell>
        <mxCell id="wAHOEPbOG4hZvs8cBgcl-122" value="&lt;span style=&quot;font-family: monospace; font-weight: 400; text-decoration: none;&quot;&gt;patient_id &amp;nbsp; &lt;span style=&quot;white-space: pre;&quot;&gt;&#x9;&lt;/span&gt;(uuid)&lt;/span&gt;" style="shape=partialRectangle;connectable=0;fillColor=none;top=0;left=0;bottom=0;right=0;align=left;spacingLeft=6;fontStyle=5;overflow=hidden;whiteSpace=wrap;html=1;" vertex="1" parent="wAHOEPbOG4hZvs8cBgcl-120">
          <mxGeometry x="30.75" width="333.25" height="30" as="geometry">
            <mxRectangle width="333.25" height="30" as="alternateBounds" />
          </mxGeometry>
        </mxCell>
        <mxCell id="wAHOEPbOG4hZvs8cBgcl-123" value="" style="shape=tableRow;horizontal=0;startSize=0;swimlaneHead=0;swimlaneBody=0;fillColor=none;collapsible=0;dropTarget=0;points=[[0,0.5],[1,0.5]];portConstraint=eastwest;top=0;left=0;right=0;bottom=0;" vertex="1" parent="wAHOEPbOG4hZvs8cBgcl-119">
          <mxGeometry y="60" width="364" height="30" as="geometry" />
        </mxCell>
        <mxCell id="wAHOEPbOG4hZvs8cBgcl-124" value="" style="shape=partialRectangle;connectable=0;fillColor=none;top=0;left=0;bottom=0;right=0;editable=1;overflow=hidden;whiteSpace=wrap;html=1;" vertex="1" parent="wAHOEPbOG4hZvs8cBgcl-123">
          <mxGeometry width="30.75" height="30" as="geometry">
            <mxRectangle width="30.75" height="30" as="alternateBounds" />
          </mxGeometry>
        </mxCell>
        <mxCell id="wAHOEPbOG4hZvs8cBgcl-125" value="&lt;code&gt;first_name&lt;span style=&quot;white-space: pre;&quot;&gt;&#x9;(varchar (50))&lt;/span&gt;&lt;/code&gt;" style="shape=partialRectangle;connectable=0;fillColor=none;top=0;left=0;bottom=0;right=0;align=left;spacingLeft=6;overflow=hidden;whiteSpace=wrap;html=1;" vertex="1" parent="wAHOEPbOG4hZvs8cBgcl-123">
          <mxGeometry x="30.75" width="333.25" height="30" as="geometry">
            <mxRectangle width="333.25" height="30" as="alternateBounds" />
          </mxGeometry>
        </mxCell>
        <mxCell id="wAHOEPbOG4hZvs8cBgcl-126" value="" style="shape=tableRow;horizontal=0;startSize=0;swimlaneHead=0;swimlaneBody=0;fillColor=none;collapsible=0;dropTarget=0;points=[[0,0.5],[1,0.5]];portConstraint=eastwest;top=0;left=0;right=0;bottom=0;" vertex="1" parent="wAHOEPbOG4hZvs8cBgcl-119">
          <mxGeometry y="90" width="364" height="30" as="geometry" />
        </mxCell>
        <mxCell id="wAHOEPbOG4hZvs8cBgcl-127" value="" style="shape=partialRectangle;connectable=0;fillColor=none;top=0;left=0;bottom=0;right=0;editable=1;overflow=hidden;whiteSpace=wrap;html=1;" vertex="1" parent="wAHOEPbOG4hZvs8cBgcl-126">
          <mxGeometry width="30.75" height="30" as="geometry">
            <mxRectangle width="30.75" height="30" as="alternateBounds" />
          </mxGeometry>
        </mxCell>
        <mxCell id="wAHOEPbOG4hZvs8cBgcl-128" value="&lt;code&gt;last_name&lt;span style=&quot;white-space: pre;&quot;&gt;&#x9;(varchar 50)&lt;/span&gt;&lt;/code&gt;" style="shape=partialRectangle;connectable=0;fillColor=none;top=0;left=0;bottom=0;right=0;align=left;spacingLeft=6;overflow=hidden;whiteSpace=wrap;html=1;" vertex="1" parent="wAHOEPbOG4hZvs8cBgcl-126">
          <mxGeometry x="30.75" width="333.25" height="30" as="geometry">
            <mxRectangle width="333.25" height="30" as="alternateBounds" />
          </mxGeometry>
        </mxCell>
        <mxCell id="wAHOEPbOG4hZvs8cBgcl-129" value="" style="shape=tableRow;horizontal=0;startSize=0;swimlaneHead=0;swimlaneBody=0;fillColor=none;collapsible=0;dropTarget=0;points=[[0,0.5],[1,0.5]];portConstraint=eastwest;top=0;left=0;right=0;bottom=0;" vertex="1" parent="wAHOEPbOG4hZvs8cBgcl-119">
          <mxGeometry y="120" width="364" height="30" as="geometry" />
        </mxCell>
        <mxCell id="wAHOEPbOG4hZvs8cBgcl-130" value="" style="shape=partialRectangle;connectable=0;fillColor=none;top=0;left=0;bottom=0;right=0;editable=1;overflow=hidden;whiteSpace=wrap;html=1;" vertex="1" parent="wAHOEPbOG4hZvs8cBgcl-129">
          <mxGeometry width="30.75" height="30" as="geometry">
            <mxRectangle width="30.75" height="30" as="alternateBounds" />
          </mxGeometry>
        </mxCell>
        <mxCell id="wAHOEPbOG4hZvs8cBgcl-131" value="&lt;code&gt;date_of_birth&lt;span style=&quot;white-space: pre;&quot;&gt;&#x9;(date)&lt;/span&gt;&lt;/code&gt;" style="shape=partialRectangle;connectable=0;fillColor=none;top=0;left=0;bottom=0;right=0;align=left;spacingLeft=6;overflow=hidden;whiteSpace=wrap;html=1;" vertex="1" parent="wAHOEPbOG4hZvs8cBgcl-129">
          <mxGeometry x="30.75" width="333.25" height="30" as="geometry">
            <mxRectangle width="333.25" height="30" as="alternateBounds" />
          </mxGeometry>
        </mxCell>
        <mxCell id="wAHOEPbOG4hZvs8cBgcl-132" value="" style="shape=tableRow;horizontal=0;startSize=0;swimlaneHead=0;swimlaneBody=0;fillColor=none;collapsible=0;dropTarget=0;points=[[0,0.5],[1,0.5]];portConstraint=eastwest;top=0;left=0;right=0;bottom=0;" vertex="1" parent="wAHOEPbOG4hZvs8cBgcl-119">
          <mxGeometry y="150" width="364" height="30" as="geometry" />
        </mxCell>
        <mxCell id="wAHOEPbOG4hZvs8cBgcl-133" value="" style="shape=partialRectangle;connectable=0;fillColor=none;top=0;left=0;bottom=0;right=0;editable=1;overflow=hidden;whiteSpace=wrap;html=1;" vertex="1" parent="wAHOEPbOG4hZvs8cBgcl-132">
          <mxGeometry width="30.75" height="30" as="geometry">
            <mxRectangle width="30.75" height="30" as="alternateBounds" />
          </mxGeometry>
        </mxCell>
        <mxCell id="wAHOEPbOG4hZvs8cBgcl-134" value="&lt;code&gt;gender&lt;span style=&quot;white-space: pre;&quot;&gt;&#x9;&lt;/span&gt;&lt;span style=&quot;white-space: pre;&quot;&gt;&#x9;(varchar 10)&lt;/span&gt;&lt;/code&gt;" style="shape=partialRectangle;connectable=0;fillColor=none;top=0;left=0;bottom=0;right=0;align=left;spacingLeft=6;overflow=hidden;whiteSpace=wrap;html=1;" vertex="1" parent="wAHOEPbOG4hZvs8cBgcl-132">
          <mxGeometry x="30.75" width="333.25" height="30" as="geometry">
            <mxRectangle width="333.25" height="30" as="alternateBounds" />
          </mxGeometry>
        </mxCell>
        <mxCell id="wAHOEPbOG4hZvs8cBgcl-135" value="" style="shape=tableRow;horizontal=0;startSize=0;swimlaneHead=0;swimlaneBody=0;fillColor=none;collapsible=0;dropTarget=0;points=[[0,0.5],[1,0.5]];portConstraint=eastwest;top=0;left=0;right=0;bottom=0;" vertex="1" parent="wAHOEPbOG4hZvs8cBgcl-119">
          <mxGeometry y="180" width="364" height="30" as="geometry" />
        </mxCell>
        <mxCell id="wAHOEPbOG4hZvs8cBgcl-136" value="" style="shape=partialRectangle;connectable=0;fillColor=none;top=0;left=0;bottom=0;right=0;editable=1;overflow=hidden;whiteSpace=wrap;html=1;" vertex="1" parent="wAHOEPbOG4hZvs8cBgcl-135">
          <mxGeometry width="30.75" height="30" as="geometry">
            <mxRectangle width="30.75" height="30" as="alternateBounds" />
          </mxGeometry>
        </mxCell>
        <mxCell id="wAHOEPbOG4hZvs8cBgcl-137" value="&lt;code&gt;ethnicity&lt;span style=&quot;white-space: pre;&quot;&gt;&#x9;(varchar 20)&lt;/span&gt;&lt;/code&gt;" style="shape=partialRectangle;connectable=0;fillColor=none;top=0;left=0;bottom=0;right=0;align=left;spacingLeft=6;overflow=hidden;whiteSpace=wrap;html=1;" vertex="1" parent="wAHOEPbOG4hZvs8cBgcl-135">
          <mxGeometry x="30.75" width="333.25" height="30" as="geometry">
            <mxRectangle width="333.25" height="30" as="alternateBounds" />
          </mxGeometry>
        </mxCell>
        <mxCell id="wAHOEPbOG4hZvs8cBgcl-138" value="" style="shape=tableRow;horizontal=0;startSize=0;swimlaneHead=0;swimlaneBody=0;fillColor=none;collapsible=0;dropTarget=0;points=[[0,0.5],[1,0.5]];portConstraint=eastwest;top=0;left=0;right=0;bottom=0;" vertex="1" parent="wAHOEPbOG4hZvs8cBgcl-119">
          <mxGeometry y="210" width="364" height="30" as="geometry" />
        </mxCell>
        <mxCell id="wAHOEPbOG4hZvs8cBgcl-139" value="" style="shape=partialRectangle;connectable=0;fillColor=none;top=0;left=0;bottom=0;right=0;editable=1;overflow=hidden;whiteSpace=wrap;html=1;" vertex="1" parent="wAHOEPbOG4hZvs8cBgcl-138">
          <mxGeometry width="30.75" height="30" as="geometry">
            <mxRectangle width="30.75" height="30" as="alternateBounds" />
          </mxGeometry>
        </mxCell>
        <mxCell id="wAHOEPbOG4hZvs8cBgcl-140" value="&lt;code&gt;address&lt;span style=&quot;white-space: pre;&quot;&gt;&#x9;&lt;/span&gt;&lt;span style=&quot;white-space: pre;&quot;&gt;&#x9;(varchar 255)&lt;/span&gt;&lt;/code&gt;" style="shape=partialRectangle;connectable=0;fillColor=none;top=0;left=0;bottom=0;right=0;align=left;spacingLeft=6;overflow=hidden;whiteSpace=wrap;html=1;" vertex="1" parent="wAHOEPbOG4hZvs8cBgcl-138">
          <mxGeometry x="30.75" width="333.25" height="30" as="geometry">
            <mxRectangle width="333.25" height="30" as="alternateBounds" />
          </mxGeometry>
        </mxCell>
        <mxCell id="wAHOEPbOG4hZvs8cBgcl-141" value="" style="shape=tableRow;horizontal=0;startSize=0;swimlaneHead=0;swimlaneBody=0;fillColor=none;collapsible=0;dropTarget=0;points=[[0,0.5],[1,0.5]];portConstraint=eastwest;top=0;left=0;right=0;bottom=0;" vertex="1" parent="wAHOEPbOG4hZvs8cBgcl-119">
          <mxGeometry y="240" width="364" height="30" as="geometry" />
        </mxCell>
        <mxCell id="wAHOEPbOG4hZvs8cBgcl-142" value="" style="shape=partialRectangle;connectable=0;fillColor=none;top=0;left=0;bottom=0;right=0;editable=1;overflow=hidden;whiteSpace=wrap;html=1;" vertex="1" parent="wAHOEPbOG4hZvs8cBgcl-141">
          <mxGeometry width="30.75" height="30" as="geometry">
            <mxRectangle width="30.75" height="30" as="alternateBounds" />
          </mxGeometry>
        </mxCell>
        <mxCell id="wAHOEPbOG4hZvs8cBgcl-143" value="&lt;code&gt;contact_number&lt;span style=&quot;white-space: pre;&quot;&gt;&#x9;(varchar 20)&lt;/span&gt;&lt;/code&gt;" style="shape=partialRectangle;connectable=0;fillColor=none;top=0;left=0;bottom=0;right=0;align=left;spacingLeft=6;overflow=hidden;whiteSpace=wrap;html=1;" vertex="1" parent="wAHOEPbOG4hZvs8cBgcl-141">
          <mxGeometry x="30.75" width="333.25" height="30" as="geometry">
            <mxRectangle width="333.25" height="30" as="alternateBounds" />
          </mxGeometry>
        </mxCell>
        <mxCell id="wAHOEPbOG4hZvs8cBgcl-144" value="" style="shape=tableRow;horizontal=0;startSize=0;swimlaneHead=0;swimlaneBody=0;fillColor=none;collapsible=0;dropTarget=0;points=[[0,0.5],[1,0.5]];portConstraint=eastwest;top=0;left=0;right=0;bottom=0;" vertex="1" parent="wAHOEPbOG4hZvs8cBgcl-119">
          <mxGeometry y="270" width="364" height="30" as="geometry" />
        </mxCell>
        <mxCell id="wAHOEPbOG4hZvs8cBgcl-145" value="" style="shape=partialRectangle;connectable=0;fillColor=none;top=0;left=0;bottom=0;right=0;editable=1;overflow=hidden;whiteSpace=wrap;html=1;" vertex="1" parent="wAHOEPbOG4hZvs8cBgcl-144">
          <mxGeometry width="30.75" height="30" as="geometry">
            <mxRectangle width="30.75" height="30" as="alternateBounds" />
          </mxGeometry>
        </mxCell>
        <mxCell id="wAHOEPbOG4hZvs8cBgcl-146" value="&lt;code&gt;marital_status&lt;span style=&quot;white-space: pre;&quot;&gt;&#x9;(varchar 20)&lt;/span&gt;&lt;/code&gt;" style="shape=partialRectangle;connectable=0;fillColor=none;top=0;left=0;bottom=0;right=0;align=left;spacingLeft=6;overflow=hidden;whiteSpace=wrap;html=1;" vertex="1" parent="wAHOEPbOG4hZvs8cBgcl-144">
          <mxGeometry x="30.75" width="333.25" height="30" as="geometry">
            <mxRectangle width="333.25" height="30" as="alternateBounds" />
          </mxGeometry>
        </mxCell>
        <mxCell id="wAHOEPbOG4hZvs8cBgcl-147" value="" style="shape=tableRow;horizontal=0;startSize=0;swimlaneHead=0;swimlaneBody=0;fillColor=none;collapsible=0;dropTarget=0;points=[[0,0.5],[1,0.5]];portConstraint=eastwest;top=0;left=0;right=0;bottom=0;" vertex="1" parent="wAHOEPbOG4hZvs8cBgcl-119">
          <mxGeometry y="300" width="364" height="30" as="geometry" />
        </mxCell>
        <mxCell id="wAHOEPbOG4hZvs8cBgcl-148" value="" style="shape=partialRectangle;connectable=0;fillColor=none;top=0;left=0;bottom=0;right=0;editable=1;overflow=hidden;whiteSpace=wrap;html=1;" vertex="1" parent="wAHOEPbOG4hZvs8cBgcl-147">
          <mxGeometry width="30.75" height="30" as="geometry">
            <mxRectangle width="30.75" height="30" as="alternateBounds" />
          </mxGeometry>
        </mxCell>
        <mxCell id="wAHOEPbOG4hZvs8cBgcl-149" value="&lt;code&gt;insurance_provider (varchar 50)&lt;/code&gt;" style="shape=partialRectangle;connectable=0;fillColor=none;top=0;left=0;bottom=0;right=0;align=left;spacingLeft=6;overflow=hidden;whiteSpace=wrap;html=1;" vertex="1" parent="wAHOEPbOG4hZvs8cBgcl-147">
          <mxGeometry x="30.75" width="333.25" height="30" as="geometry">
            <mxRectangle width="333.25" height="30" as="alternateBounds" />
          </mxGeometry>
        </mxCell>
        <mxCell id="wAHOEPbOG4hZvs8cBgcl-150" value="" style="shape=tableRow;horizontal=0;startSize=0;swimlaneHead=0;swimlaneBody=0;fillColor=none;collapsible=0;dropTarget=0;points=[[0,0.5],[1,0.5]];portConstraint=eastwest;top=0;left=0;right=0;bottom=0;" vertex="1" parent="wAHOEPbOG4hZvs8cBgcl-119">
          <mxGeometry y="330" width="364" height="30" as="geometry" />
        </mxCell>
        <mxCell id="wAHOEPbOG4hZvs8cBgcl-151" value="" style="shape=partialRectangle;connectable=0;fillColor=none;top=0;left=0;bottom=0;right=0;editable=1;overflow=hidden;whiteSpace=wrap;html=1;" vertex="1" parent="wAHOEPbOG4hZvs8cBgcl-150">
          <mxGeometry width="30.75" height="30" as="geometry">
            <mxRectangle width="30.75" height="30" as="alternateBounds" />
          </mxGeometry>
        </mxCell>
        <mxCell id="wAHOEPbOG4hZvs8cBgcl-152" value="&lt;code&gt;insurance_policy_number&lt;span style=&quot;white-space: pre;&quot;&gt;&#x9;(varchar 20)&lt;/span&gt;&lt;/code&gt;" style="shape=partialRectangle;connectable=0;fillColor=none;top=0;left=0;bottom=0;right=0;align=left;spacingLeft=6;overflow=hidden;whiteSpace=wrap;html=1;" vertex="1" parent="wAHOEPbOG4hZvs8cBgcl-150">
          <mxGeometry x="30.75" width="333.25" height="30" as="geometry">
            <mxRectangle width="333.25" height="30" as="alternateBounds" />
          </mxGeometry>
        </mxCell>
        <mxCell id="wAHOEPbOG4hZvs8cBgcl-153" value="" style="shape=tableRow;horizontal=0;startSize=0;swimlaneHead=0;swimlaneBody=0;fillColor=none;collapsible=0;dropTarget=0;points=[[0,0.5],[1,0.5]];portConstraint=eastwest;top=0;left=0;right=0;bottom=0;" vertex="1" parent="wAHOEPbOG4hZvs8cBgcl-119">
          <mxGeometry y="360" width="364" height="30" as="geometry" />
        </mxCell>
        <mxCell id="wAHOEPbOG4hZvs8cBgcl-154" value="" style="shape=partialRectangle;connectable=0;fillColor=none;top=0;left=0;bottom=0;right=0;editable=1;overflow=hidden;whiteSpace=wrap;html=1;" vertex="1" parent="wAHOEPbOG4hZvs8cBgcl-153">
          <mxGeometry width="30.75" height="30" as="geometry">
            <mxRectangle width="30.75" height="30" as="alternateBounds" />
          </mxGeometry>
        </mxCell>
        <mxCell id="wAHOEPbOG4hZvs8cBgcl-155" value="&lt;code&gt;emergency_contact_name&lt;span style=&quot;white-space: pre;&quot;&gt;&#x9;(varchar 50)&lt;/span&gt;&lt;/code&gt;" style="shape=partialRectangle;connectable=0;fillColor=none;top=0;left=0;bottom=0;right=0;align=left;spacingLeft=6;overflow=hidden;whiteSpace=wrap;html=1;" vertex="1" parent="wAHOEPbOG4hZvs8cBgcl-153">
          <mxGeometry x="30.75" width="333.25" height="30" as="geometry">
            <mxRectangle width="333.25" height="30" as="alternateBounds" />
          </mxGeometry>
        </mxCell>
        <mxCell id="wAHOEPbOG4hZvs8cBgcl-156" value="" style="shape=tableRow;horizontal=0;startSize=0;swimlaneHead=0;swimlaneBody=0;fillColor=none;collapsible=0;dropTarget=0;points=[[0,0.5],[1,0.5]];portConstraint=eastwest;top=0;left=0;right=0;bottom=0;" vertex="1" parent="wAHOEPbOG4hZvs8cBgcl-119">
          <mxGeometry y="390" width="364" height="30" as="geometry" />
        </mxCell>
        <mxCell id="wAHOEPbOG4hZvs8cBgcl-157" value="" style="shape=partialRectangle;connectable=0;fillColor=none;top=0;left=0;bottom=0;right=0;editable=1;overflow=hidden;whiteSpace=wrap;html=1;" vertex="1" parent="wAHOEPbOG4hZvs8cBgcl-156">
          <mxGeometry width="30.75" height="30" as="geometry">
            <mxRectangle width="30.75" height="30" as="alternateBounds" />
          </mxGeometry>
        </mxCell>
        <mxCell id="wAHOEPbOG4hZvs8cBgcl-158" value="&lt;code&gt;emergency_contact_relationship&lt;span style=&quot;white-space: pre;&quot;&gt;&#x9;(varchar 20)&lt;/span&gt;&lt;/code&gt;" style="shape=partialRectangle;connectable=0;fillColor=none;top=0;left=0;bottom=0;right=0;align=left;spacingLeft=6;overflow=hidden;whiteSpace=wrap;html=1;" vertex="1" parent="wAHOEPbOG4hZvs8cBgcl-156">
          <mxGeometry x="30.75" width="333.25" height="30" as="geometry">
            <mxRectangle width="333.25" height="30" as="alternateBounds" />
          </mxGeometry>
        </mxCell>
        <mxCell id="wAHOEPbOG4hZvs8cBgcl-159" value="" style="shape=tableRow;horizontal=0;startSize=0;swimlaneHead=0;swimlaneBody=0;fillColor=none;collapsible=0;dropTarget=0;points=[[0,0.5],[1,0.5]];portConstraint=eastwest;top=0;left=0;right=0;bottom=0;" vertex="1" parent="wAHOEPbOG4hZvs8cBgcl-119">
          <mxGeometry y="420" width="364" height="32" as="geometry" />
        </mxCell>
        <mxCell id="wAHOEPbOG4hZvs8cBgcl-160" value="" style="shape=partialRectangle;connectable=0;fillColor=none;top=0;left=0;bottom=0;right=0;editable=1;overflow=hidden;whiteSpace=wrap;html=1;" vertex="1" parent="wAHOEPbOG4hZvs8cBgcl-159">
          <mxGeometry width="30.75" height="32" as="geometry">
            <mxRectangle width="30.75" height="32" as="alternateBounds" />
          </mxGeometry>
        </mxCell>
        <mxCell id="wAHOEPbOG4hZvs8cBgcl-161" value="&lt;code&gt;emergency_contact_number&lt;span style=&quot;white-space: pre;&quot;&gt;&#x9;(varchar 20)&lt;/span&gt;&lt;/code&gt;" style="shape=partialRectangle;connectable=0;fillColor=none;top=0;left=0;bottom=0;right=0;align=left;spacingLeft=6;overflow=hidden;whiteSpace=wrap;html=1;" vertex="1" parent="wAHOEPbOG4hZvs8cBgcl-159">
          <mxGeometry x="30.75" width="333.25" height="32" as="geometry">
            <mxRectangle width="333.25" height="32" as="alternateBounds" />
          </mxGeometry>
        </mxCell>
        <mxCell id="wAHOEPbOG4hZvs8cBgcl-162" value="dim_doctors" style="shape=table;startSize=30;container=1;collapsible=1;childLayout=tableLayout;fixedRows=1;rowLines=0;fontStyle=1;align=center;resizeLast=1;html=1;" vertex="1" parent="1">
          <mxGeometry x="-92" y="343" width="247" height="240" as="geometry" />
        </mxCell>
        <mxCell id="wAHOEPbOG4hZvs8cBgcl-163" value="" style="shape=tableRow;horizontal=0;startSize=0;swimlaneHead=0;swimlaneBody=0;fillColor=none;collapsible=0;dropTarget=0;points=[[0,0.5],[1,0.5]];portConstraint=eastwest;top=0;left=0;right=0;bottom=1;" vertex="1" parent="wAHOEPbOG4hZvs8cBgcl-162">
          <mxGeometry y="30" width="247" height="30" as="geometry" />
        </mxCell>
        <mxCell id="wAHOEPbOG4hZvs8cBgcl-164" value="PK" style="shape=partialRectangle;connectable=0;fillColor=none;top=0;left=0;bottom=0;right=0;fontStyle=1;overflow=hidden;whiteSpace=wrap;html=1;" vertex="1" parent="wAHOEPbOG4hZvs8cBgcl-163">
          <mxGeometry width="31.75" height="30" as="geometry">
            <mxRectangle width="31.75" height="30" as="alternateBounds" />
          </mxGeometry>
        </mxCell>
        <mxCell id="wAHOEPbOG4hZvs8cBgcl-165" value="&lt;code style=&quot;font-weight: 400; text-decoration: none;&quot;&gt;doctor_id&lt;span style=&quot;white-space: pre;&quot;&gt;&#x9;(uuid)&lt;/span&gt;&lt;/code&gt;" style="shape=partialRectangle;connectable=0;fillColor=none;top=0;left=0;bottom=0;right=0;align=left;spacingLeft=6;fontStyle=5;overflow=hidden;whiteSpace=wrap;html=1;" vertex="1" parent="wAHOEPbOG4hZvs8cBgcl-163">
          <mxGeometry x="31.75" width="215.25" height="30" as="geometry">
            <mxRectangle width="215.25" height="30" as="alternateBounds" />
          </mxGeometry>
        </mxCell>
        <mxCell id="wAHOEPbOG4hZvs8cBgcl-166" value="" style="shape=tableRow;horizontal=0;startSize=0;swimlaneHead=0;swimlaneBody=0;fillColor=none;collapsible=0;dropTarget=0;points=[[0,0.5],[1,0.5]];portConstraint=eastwest;top=0;left=0;right=0;bottom=0;" vertex="1" parent="wAHOEPbOG4hZvs8cBgcl-162">
          <mxGeometry y="60" width="247" height="30" as="geometry" />
        </mxCell>
        <mxCell id="wAHOEPbOG4hZvs8cBgcl-167" value="" style="shape=partialRectangle;connectable=0;fillColor=none;top=0;left=0;bottom=0;right=0;editable=1;overflow=hidden;whiteSpace=wrap;html=1;" vertex="1" parent="wAHOEPbOG4hZvs8cBgcl-166">
          <mxGeometry width="31.75" height="30" as="geometry">
            <mxRectangle width="31.75" height="30" as="alternateBounds" />
          </mxGeometry>
        </mxCell>
        <mxCell id="wAHOEPbOG4hZvs8cBgcl-168" value="&lt;code&gt;first_name&lt;span style=&quot;white-space: pre;&quot;&gt;&#x9;(varchar 50)&lt;/span&gt;&lt;/code&gt;" style="shape=partialRectangle;connectable=0;fillColor=none;top=0;left=0;bottom=0;right=0;align=left;spacingLeft=6;overflow=hidden;whiteSpace=wrap;html=1;" vertex="1" parent="wAHOEPbOG4hZvs8cBgcl-166">
          <mxGeometry x="31.75" width="215.25" height="30" as="geometry">
            <mxRectangle width="215.25" height="30" as="alternateBounds" />
          </mxGeometry>
        </mxCell>
        <mxCell id="wAHOEPbOG4hZvs8cBgcl-169" value="" style="shape=tableRow;horizontal=0;startSize=0;swimlaneHead=0;swimlaneBody=0;fillColor=none;collapsible=0;dropTarget=0;points=[[0,0.5],[1,0.5]];portConstraint=eastwest;top=0;left=0;right=0;bottom=0;" vertex="1" parent="wAHOEPbOG4hZvs8cBgcl-162">
          <mxGeometry y="90" width="247" height="30" as="geometry" />
        </mxCell>
        <mxCell id="wAHOEPbOG4hZvs8cBgcl-170" value="" style="shape=partialRectangle;connectable=0;fillColor=none;top=0;left=0;bottom=0;right=0;editable=1;overflow=hidden;whiteSpace=wrap;html=1;" vertex="1" parent="wAHOEPbOG4hZvs8cBgcl-169">
          <mxGeometry width="31.75" height="30" as="geometry">
            <mxRectangle width="31.75" height="30" as="alternateBounds" />
          </mxGeometry>
        </mxCell>
        <mxCell id="wAHOEPbOG4hZvs8cBgcl-171" value="&lt;code&gt;last_name&lt;span style=&quot;white-space: pre;&quot;&gt;&#x9;(varchar 50)&lt;/span&gt;&lt;/code&gt;" style="shape=partialRectangle;connectable=0;fillColor=none;top=0;left=0;bottom=0;right=0;align=left;spacingLeft=6;overflow=hidden;whiteSpace=wrap;html=1;" vertex="1" parent="wAHOEPbOG4hZvs8cBgcl-169">
          <mxGeometry x="31.75" width="215.25" height="30" as="geometry">
            <mxRectangle width="215.25" height="30" as="alternateBounds" />
          </mxGeometry>
        </mxCell>
        <mxCell id="wAHOEPbOG4hZvs8cBgcl-172" value="" style="shape=tableRow;horizontal=0;startSize=0;swimlaneHead=0;swimlaneBody=0;fillColor=none;collapsible=0;dropTarget=0;points=[[0,0.5],[1,0.5]];portConstraint=eastwest;top=0;left=0;right=0;bottom=0;" vertex="1" parent="wAHOEPbOG4hZvs8cBgcl-162">
          <mxGeometry y="120" width="247" height="30" as="geometry" />
        </mxCell>
        <mxCell id="wAHOEPbOG4hZvs8cBgcl-173" value="" style="shape=partialRectangle;connectable=0;fillColor=none;top=0;left=0;bottom=0;right=0;editable=1;overflow=hidden;whiteSpace=wrap;html=1;" vertex="1" parent="wAHOEPbOG4hZvs8cBgcl-172">
          <mxGeometry width="31.75" height="30" as="geometry">
            <mxRectangle width="31.75" height="30" as="alternateBounds" />
          </mxGeometry>
        </mxCell>
        <mxCell id="wAHOEPbOG4hZvs8cBgcl-174" value="&lt;code&gt;specialty&lt;span style=&quot;white-space: pre;&quot;&gt;&#x9;(varchar 50)&lt;/span&gt;&lt;/code&gt;" style="shape=partialRectangle;connectable=0;fillColor=none;top=0;left=0;bottom=0;right=0;align=left;spacingLeft=6;overflow=hidden;whiteSpace=wrap;html=1;" vertex="1" parent="wAHOEPbOG4hZvs8cBgcl-172">
          <mxGeometry x="31.75" width="215.25" height="30" as="geometry">
            <mxRectangle width="215.25" height="30" as="alternateBounds" />
          </mxGeometry>
        </mxCell>
        <mxCell id="wAHOEPbOG4hZvs8cBgcl-175" value="" style="shape=tableRow;horizontal=0;startSize=0;swimlaneHead=0;swimlaneBody=0;fillColor=none;collapsible=0;dropTarget=0;points=[[0,0.5],[1,0.5]];portConstraint=eastwest;top=0;left=0;right=0;bottom=0;" vertex="1" parent="wAHOEPbOG4hZvs8cBgcl-162">
          <mxGeometry y="150" width="247" height="30" as="geometry" />
        </mxCell>
        <mxCell id="wAHOEPbOG4hZvs8cBgcl-176" value="" style="shape=partialRectangle;connectable=0;fillColor=none;top=0;left=0;bottom=0;right=0;editable=1;overflow=hidden;whiteSpace=wrap;html=1;" vertex="1" parent="wAHOEPbOG4hZvs8cBgcl-175">
          <mxGeometry width="31.75" height="30" as="geometry">
            <mxRectangle width="31.75" height="30" as="alternateBounds" />
          </mxGeometry>
        </mxCell>
        <mxCell id="wAHOEPbOG4hZvs8cBgcl-177" value="&lt;code&gt;contact_number&lt;span style=&quot;white-space: pre;&quot;&gt;&#x9;(varchar 20)&lt;/span&gt;&lt;/code&gt;" style="shape=partialRectangle;connectable=0;fillColor=none;top=0;left=0;bottom=0;right=0;align=left;spacingLeft=6;overflow=hidden;whiteSpace=wrap;html=1;" vertex="1" parent="wAHOEPbOG4hZvs8cBgcl-175">
          <mxGeometry x="31.75" width="215.25" height="30" as="geometry">
            <mxRectangle width="215.25" height="30" as="alternateBounds" />
          </mxGeometry>
        </mxCell>
        <mxCell id="wAHOEPbOG4hZvs8cBgcl-178" value="" style="shape=tableRow;horizontal=0;startSize=0;swimlaneHead=0;swimlaneBody=0;fillColor=none;collapsible=0;dropTarget=0;points=[[0,0.5],[1,0.5]];portConstraint=eastwest;top=0;left=0;right=0;bottom=0;" vertex="1" parent="wAHOEPbOG4hZvs8cBgcl-162">
          <mxGeometry y="180" width="247" height="30" as="geometry" />
        </mxCell>
        <mxCell id="wAHOEPbOG4hZvs8cBgcl-179" value="" style="shape=partialRectangle;connectable=0;fillColor=none;top=0;left=0;bottom=0;right=0;editable=1;overflow=hidden;whiteSpace=wrap;html=1;" vertex="1" parent="wAHOEPbOG4hZvs8cBgcl-178">
          <mxGeometry width="31.75" height="30" as="geometry">
            <mxRectangle width="31.75" height="30" as="alternateBounds" />
          </mxGeometry>
        </mxCell>
        <mxCell id="wAHOEPbOG4hZvs8cBgcl-180" value="&lt;code&gt;email&lt;span style=&quot;white-space: pre;&quot;&gt;&#x9;&lt;/span&gt;&lt;span style=&quot;white-space: pre;&quot;&gt;&#x9;(varchar 100)&lt;/span&gt;&lt;/code&gt;" style="shape=partialRectangle;connectable=0;fillColor=none;top=0;left=0;bottom=0;right=0;align=left;spacingLeft=6;overflow=hidden;whiteSpace=wrap;html=1;" vertex="1" parent="wAHOEPbOG4hZvs8cBgcl-178">
          <mxGeometry x="31.75" width="215.25" height="30" as="geometry">
            <mxRectangle width="215.25" height="30" as="alternateBounds" />
          </mxGeometry>
        </mxCell>
        <mxCell id="wAHOEPbOG4hZvs8cBgcl-181" value="" style="shape=tableRow;horizontal=0;startSize=0;swimlaneHead=0;swimlaneBody=0;fillColor=none;collapsible=0;dropTarget=0;points=[[0,0.5],[1,0.5]];portConstraint=eastwest;top=0;left=0;right=0;bottom=0;" vertex="1" parent="wAHOEPbOG4hZvs8cBgcl-162">
          <mxGeometry y="210" width="247" height="30" as="geometry" />
        </mxCell>
        <mxCell id="wAHOEPbOG4hZvs8cBgcl-182" value="" style="shape=partialRectangle;connectable=0;fillColor=none;top=0;left=0;bottom=0;right=0;editable=1;overflow=hidden;whiteSpace=wrap;html=1;" vertex="1" parent="wAHOEPbOG4hZvs8cBgcl-181">
          <mxGeometry width="31.75" height="30" as="geometry">
            <mxRectangle width="31.75" height="30" as="alternateBounds" />
          </mxGeometry>
        </mxCell>
        <mxCell id="wAHOEPbOG4hZvs8cBgcl-183" value="&lt;code&gt;department_id&lt;span style=&quot;white-space: pre;&quot;&gt;&#x9;(int)&lt;/span&gt;&lt;/code&gt;" style="shape=partialRectangle;connectable=0;fillColor=none;top=0;left=0;bottom=0;right=0;align=left;spacingLeft=6;overflow=hidden;whiteSpace=wrap;html=1;" vertex="1" parent="wAHOEPbOG4hZvs8cBgcl-181">
          <mxGeometry x="31.75" width="215.25" height="30" as="geometry">
            <mxRectangle width="215.25" height="30" as="alternateBounds" />
          </mxGeometry>
        </mxCell>
        <mxCell id="wAHOEPbOG4hZvs8cBgcl-190" value="dim_departments" style="shape=table;startSize=30;container=1;collapsible=1;childLayout=tableLayout;fixedRows=1;rowLines=0;fontStyle=1;align=center;resizeLast=1;html=1;" vertex="1" parent="1">
          <mxGeometry x="-92" y="645" width="263" height="155" as="geometry" />
        </mxCell>
        <mxCell id="wAHOEPbOG4hZvs8cBgcl-191" value="" style="shape=tableRow;horizontal=0;startSize=0;swimlaneHead=0;swimlaneBody=0;fillColor=none;collapsible=0;dropTarget=0;points=[[0,0.5],[1,0.5]];portConstraint=eastwest;top=0;left=0;right=0;bottom=1;" vertex="1" parent="wAHOEPbOG4hZvs8cBgcl-190">
          <mxGeometry y="30" width="263" height="30" as="geometry" />
        </mxCell>
        <mxCell id="wAHOEPbOG4hZvs8cBgcl-192" value="PK" style="shape=partialRectangle;connectable=0;fillColor=none;top=0;left=0;bottom=0;right=0;fontStyle=1;overflow=hidden;whiteSpace=wrap;html=1;" vertex="1" parent="wAHOEPbOG4hZvs8cBgcl-191">
          <mxGeometry width="31.75" height="30" as="geometry">
            <mxRectangle width="31.75" height="30" as="alternateBounds" />
          </mxGeometry>
        </mxCell>
        <mxCell id="wAHOEPbOG4hZvs8cBgcl-193" value="&lt;code style=&quot;font-weight: 400; text-decoration: none;&quot;&gt;department_id&lt;span style=&quot;white-space: pre;&quot;&gt;&#x9;(int)&lt;/span&gt;&lt;/code&gt;" style="shape=partialRectangle;connectable=0;fillColor=none;top=0;left=0;bottom=0;right=0;align=left;spacingLeft=6;fontStyle=5;overflow=hidden;whiteSpace=wrap;html=1;" vertex="1" parent="wAHOEPbOG4hZvs8cBgcl-191">
          <mxGeometry x="31.75" width="231.25" height="30" as="geometry">
            <mxRectangle width="231.25" height="30" as="alternateBounds" />
          </mxGeometry>
        </mxCell>
        <mxCell id="wAHOEPbOG4hZvs8cBgcl-194" value="" style="shape=tableRow;horizontal=0;startSize=0;swimlaneHead=0;swimlaneBody=0;fillColor=none;collapsible=0;dropTarget=0;points=[[0,0.5],[1,0.5]];portConstraint=eastwest;top=0;left=0;right=0;bottom=0;" vertex="1" parent="wAHOEPbOG4hZvs8cBgcl-190">
          <mxGeometry y="60" width="263" height="30" as="geometry" />
        </mxCell>
        <mxCell id="wAHOEPbOG4hZvs8cBgcl-195" value="" style="shape=partialRectangle;connectable=0;fillColor=none;top=0;left=0;bottom=0;right=0;editable=1;overflow=hidden;whiteSpace=wrap;html=1;" vertex="1" parent="wAHOEPbOG4hZvs8cBgcl-194">
          <mxGeometry width="31.75" height="30" as="geometry">
            <mxRectangle width="31.75" height="30" as="alternateBounds" />
          </mxGeometry>
        </mxCell>
        <mxCell id="wAHOEPbOG4hZvs8cBgcl-196" value="&lt;code&gt;department_name&lt;span style=&quot;white-space: pre;&quot;&gt;&#x9;&lt;/span&gt;&lt;span style=&quot;white-space: pre;&quot;&gt;(varchar 50)&lt;/span&gt;&lt;/code&gt;" style="shape=partialRectangle;connectable=0;fillColor=none;top=0;left=0;bottom=0;right=0;align=left;spacingLeft=6;overflow=hidden;whiteSpace=wrap;html=1;" vertex="1" parent="wAHOEPbOG4hZvs8cBgcl-194">
          <mxGeometry x="31.75" width="231.25" height="30" as="geometry">
            <mxRectangle width="231.25" height="30" as="alternateBounds" />
          </mxGeometry>
        </mxCell>
        <mxCell id="wAHOEPbOG4hZvs8cBgcl-197" value="" style="shape=tableRow;horizontal=0;startSize=0;swimlaneHead=0;swimlaneBody=0;fillColor=none;collapsible=0;dropTarget=0;points=[[0,0.5],[1,0.5]];portConstraint=eastwest;top=0;left=0;right=0;bottom=0;" vertex="1" parent="wAHOEPbOG4hZvs8cBgcl-190">
          <mxGeometry y="90" width="263" height="30" as="geometry" />
        </mxCell>
        <mxCell id="wAHOEPbOG4hZvs8cBgcl-198" value="" style="shape=partialRectangle;connectable=0;fillColor=none;top=0;left=0;bottom=0;right=0;editable=1;overflow=hidden;whiteSpace=wrap;html=1;" vertex="1" parent="wAHOEPbOG4hZvs8cBgcl-197">
          <mxGeometry width="31.75" height="30" as="geometry">
            <mxRectangle width="31.75" height="30" as="alternateBounds" />
          </mxGeometry>
        </mxCell>
        <mxCell id="wAHOEPbOG4hZvs8cBgcl-199" value="&lt;code&gt;head_of_department&lt;span style=&quot;white-space: pre;&quot;&gt;&amp;nbsp;(varchar 50)&lt;/span&gt;&lt;/code&gt;" style="shape=partialRectangle;connectable=0;fillColor=none;top=0;left=0;bottom=0;right=0;align=left;spacingLeft=6;overflow=hidden;whiteSpace=wrap;html=1;" vertex="1" parent="wAHOEPbOG4hZvs8cBgcl-197">
          <mxGeometry x="31.75" width="231.25" height="30" as="geometry">
            <mxRectangle width="231.25" height="30" as="alternateBounds" />
          </mxGeometry>
        </mxCell>
        <mxCell id="wAHOEPbOG4hZvs8cBgcl-200" value="" style="shape=tableRow;horizontal=0;startSize=0;swimlaneHead=0;swimlaneBody=0;fillColor=none;collapsible=0;dropTarget=0;points=[[0,0.5],[1,0.5]];portConstraint=eastwest;top=0;left=0;right=0;bottom=0;" vertex="1" parent="wAHOEPbOG4hZvs8cBgcl-190">
          <mxGeometry y="120" width="263" height="30" as="geometry" />
        </mxCell>
        <mxCell id="wAHOEPbOG4hZvs8cBgcl-201" value="" style="shape=partialRectangle;connectable=0;fillColor=none;top=0;left=0;bottom=0;right=0;editable=1;overflow=hidden;whiteSpace=wrap;html=1;" vertex="1" parent="wAHOEPbOG4hZvs8cBgcl-200">
          <mxGeometry width="31.75" height="30" as="geometry">
            <mxRectangle width="31.75" height="30" as="alternateBounds" />
          </mxGeometry>
        </mxCell>
        <mxCell id="wAHOEPbOG4hZvs8cBgcl-202" value="&lt;code&gt;contact_number&lt;span style=&quot;white-space: pre;&quot;&gt;&#x9;(varchar 20)&lt;/span&gt;&lt;/code&gt;" style="shape=partialRectangle;connectable=0;fillColor=none;top=0;left=0;bottom=0;right=0;align=left;spacingLeft=6;overflow=hidden;whiteSpace=wrap;html=1;" vertex="1" parent="wAHOEPbOG4hZvs8cBgcl-200">
          <mxGeometry x="31.75" width="231.25" height="30" as="geometry">
            <mxRectangle width="231.25" height="30" as="alternateBounds" />
          </mxGeometry>
        </mxCell>
        <mxCell id="MkIn_5rYK_BIbdpMxybD-8" style="edgeStyle=none;curved=1;rounded=0;orthogonalLoop=1;jettySize=auto;html=1;exitX=0.5;exitY=0;exitDx=0;exitDy=0;entryX=0.5;entryY=1;entryDx=0;entryDy=0;fontSize=12;startSize=8;endSize=8;" edge="1" parent="1" source="wAHOEPbOG4hZvs8cBgcl-212" target="wAHOEPbOG4hZvs8cBgcl-91">
          <mxGeometry relative="1" as="geometry" />
        </mxCell>
        <mxCell id="wAHOEPbOG4hZvs8cBgcl-212" value="dim_date" style="shape=table;startSize=30;container=1;collapsible=1;childLayout=tableLayout;fixedRows=1;rowLines=0;fontStyle=1;align=center;resizeLast=1;html=1;" vertex="1" parent="1">
          <mxGeometry x="698" y="343" width="254" height="180" as="geometry" />
        </mxCell>
        <mxCell id="wAHOEPbOG4hZvs8cBgcl-213" value="" style="shape=tableRow;horizontal=0;startSize=0;swimlaneHead=0;swimlaneBody=0;fillColor=none;collapsible=0;dropTarget=0;points=[[0,0.5],[1,0.5]];portConstraint=eastwest;top=0;left=0;right=0;bottom=1;" vertex="1" parent="wAHOEPbOG4hZvs8cBgcl-212">
          <mxGeometry y="30" width="254" height="30" as="geometry" />
        </mxCell>
        <mxCell id="wAHOEPbOG4hZvs8cBgcl-214" value="PK" style="shape=partialRectangle;connectable=0;fillColor=none;top=0;left=0;bottom=0;right=0;fontStyle=1;overflow=hidden;whiteSpace=wrap;html=1;" vertex="1" parent="wAHOEPbOG4hZvs8cBgcl-213">
          <mxGeometry width="31.75" height="30" as="geometry">
            <mxRectangle width="31.75" height="30" as="alternateBounds" />
          </mxGeometry>
        </mxCell>
        <mxCell id="wAHOEPbOG4hZvs8cBgcl-215" value="&lt;code style=&quot;font-weight: 400; text-decoration: none;&quot;&gt;date&lt;span style=&quot;white-space: pre;&quot;&gt;&#x9;&lt;span style=&quot;white-space: pre;&quot;&gt;&#x9;&lt;/span&gt;(date)&lt;/span&gt;&lt;/code&gt;" style="shape=partialRectangle;connectable=0;fillColor=none;top=0;left=0;bottom=0;right=0;align=left;spacingLeft=6;fontStyle=5;overflow=hidden;whiteSpace=wrap;html=1;" vertex="1" parent="wAHOEPbOG4hZvs8cBgcl-213">
          <mxGeometry x="31.75" width="222.25" height="30" as="geometry">
            <mxRectangle width="222.25" height="30" as="alternateBounds" />
          </mxGeometry>
        </mxCell>
        <mxCell id="wAHOEPbOG4hZvs8cBgcl-216" value="" style="shape=tableRow;horizontal=0;startSize=0;swimlaneHead=0;swimlaneBody=0;fillColor=none;collapsible=0;dropTarget=0;points=[[0,0.5],[1,0.5]];portConstraint=eastwest;top=0;left=0;right=0;bottom=0;" vertex="1" parent="wAHOEPbOG4hZvs8cBgcl-212">
          <mxGeometry y="60" width="254" height="30" as="geometry" />
        </mxCell>
        <mxCell id="wAHOEPbOG4hZvs8cBgcl-217" value="" style="shape=partialRectangle;connectable=0;fillColor=none;top=0;left=0;bottom=0;right=0;editable=1;overflow=hidden;whiteSpace=wrap;html=1;" vertex="1" parent="wAHOEPbOG4hZvs8cBgcl-216">
          <mxGeometry width="31.75" height="30" as="geometry">
            <mxRectangle width="31.75" height="30" as="alternateBounds" />
          </mxGeometry>
        </mxCell>
        <mxCell id="wAHOEPbOG4hZvs8cBgcl-218" value="&lt;code&gt;day_of_week&lt;span style=&quot;white-space: pre;&quot;&gt;&#x9;(varchar 10)&lt;/span&gt;&lt;/code&gt;" style="shape=partialRectangle;connectable=0;fillColor=none;top=0;left=0;bottom=0;right=0;align=left;spacingLeft=6;overflow=hidden;whiteSpace=wrap;html=1;" vertex="1" parent="wAHOEPbOG4hZvs8cBgcl-216">
          <mxGeometry x="31.75" width="222.25" height="30" as="geometry">
            <mxRectangle width="222.25" height="30" as="alternateBounds" />
          </mxGeometry>
        </mxCell>
        <mxCell id="wAHOEPbOG4hZvs8cBgcl-219" value="" style="shape=tableRow;horizontal=0;startSize=0;swimlaneHead=0;swimlaneBody=0;fillColor=none;collapsible=0;dropTarget=0;points=[[0,0.5],[1,0.5]];portConstraint=eastwest;top=0;left=0;right=0;bottom=0;" vertex="1" parent="wAHOEPbOG4hZvs8cBgcl-212">
          <mxGeometry y="90" width="254" height="30" as="geometry" />
        </mxCell>
        <mxCell id="wAHOEPbOG4hZvs8cBgcl-220" value="" style="shape=partialRectangle;connectable=0;fillColor=none;top=0;left=0;bottom=0;right=0;editable=1;overflow=hidden;whiteSpace=wrap;html=1;" vertex="1" parent="wAHOEPbOG4hZvs8cBgcl-219">
          <mxGeometry width="31.75" height="30" as="geometry">
            <mxRectangle width="31.75" height="30" as="alternateBounds" />
          </mxGeometry>
        </mxCell>
        <mxCell id="wAHOEPbOG4hZvs8cBgcl-221" value="&lt;code&gt;month&lt;span style=&quot;white-space: pre;&quot;&gt;&#x9;&lt;/span&gt;&lt;span style=&quot;white-space: pre;&quot;&gt;&#x9;(varchar 10)&lt;/span&gt;&lt;/code&gt;" style="shape=partialRectangle;connectable=0;fillColor=none;top=0;left=0;bottom=0;right=0;align=left;spacingLeft=6;overflow=hidden;whiteSpace=wrap;html=1;" vertex="1" parent="wAHOEPbOG4hZvs8cBgcl-219">
          <mxGeometry x="31.75" width="222.25" height="30" as="geometry">
            <mxRectangle width="222.25" height="30" as="alternateBounds" />
          </mxGeometry>
        </mxCell>
        <mxCell id="wAHOEPbOG4hZvs8cBgcl-222" value="" style="shape=tableRow;horizontal=0;startSize=0;swimlaneHead=0;swimlaneBody=0;fillColor=none;collapsible=0;dropTarget=0;points=[[0,0.5],[1,0.5]];portConstraint=eastwest;top=0;left=0;right=0;bottom=0;" vertex="1" parent="wAHOEPbOG4hZvs8cBgcl-212">
          <mxGeometry y="120" width="254" height="30" as="geometry" />
        </mxCell>
        <mxCell id="wAHOEPbOG4hZvs8cBgcl-223" value="" style="shape=partialRectangle;connectable=0;fillColor=none;top=0;left=0;bottom=0;right=0;editable=1;overflow=hidden;whiteSpace=wrap;html=1;" vertex="1" parent="wAHOEPbOG4hZvs8cBgcl-222">
          <mxGeometry width="31.75" height="30" as="geometry">
            <mxRectangle width="31.75" height="30" as="alternateBounds" />
          </mxGeometry>
        </mxCell>
        <mxCell id="wAHOEPbOG4hZvs8cBgcl-224" value="&lt;code&gt;quarter&lt;span style=&quot;white-space: pre;&quot;&gt;&#x9;&lt;/span&gt;&lt;span style=&quot;white-space: pre;&quot;&gt;&#x9;(varchar 10)&lt;/span&gt;&lt;/code&gt;" style="shape=partialRectangle;connectable=0;fillColor=none;top=0;left=0;bottom=0;right=0;align=left;spacingLeft=6;overflow=hidden;whiteSpace=wrap;html=1;" vertex="1" parent="wAHOEPbOG4hZvs8cBgcl-222">
          <mxGeometry x="31.75" width="222.25" height="30" as="geometry">
            <mxRectangle width="222.25" height="30" as="alternateBounds" />
          </mxGeometry>
        </mxCell>
        <mxCell id="wAHOEPbOG4hZvs8cBgcl-225" value="" style="shape=tableRow;horizontal=0;startSize=0;swimlaneHead=0;swimlaneBody=0;fillColor=none;collapsible=0;dropTarget=0;points=[[0,0.5],[1,0.5]];portConstraint=eastwest;top=0;left=0;right=0;bottom=0;" vertex="1" parent="wAHOEPbOG4hZvs8cBgcl-212">
          <mxGeometry y="150" width="254" height="30" as="geometry" />
        </mxCell>
        <mxCell id="wAHOEPbOG4hZvs8cBgcl-226" value="" style="shape=partialRectangle;connectable=0;fillColor=none;top=0;left=0;bottom=0;right=0;editable=1;overflow=hidden;whiteSpace=wrap;html=1;" vertex="1" parent="wAHOEPbOG4hZvs8cBgcl-225">
          <mxGeometry width="31.75" height="30" as="geometry">
            <mxRectangle width="31.75" height="30" as="alternateBounds" />
          </mxGeometry>
        </mxCell>
        <mxCell id="wAHOEPbOG4hZvs8cBgcl-227" value="&lt;code&gt;year&lt;span style=&quot;white-space: pre;&quot;&gt;&#x9;&lt;/span&gt;&lt;span style=&quot;white-space: pre;&quot;&gt;&#x9;(int)&lt;/span&gt;&lt;/code&gt;" style="shape=partialRectangle;connectable=0;fillColor=none;top=0;left=0;bottom=0;right=0;align=left;spacingLeft=6;overflow=hidden;whiteSpace=wrap;html=1;" vertex="1" parent="wAHOEPbOG4hZvs8cBgcl-225">
          <mxGeometry x="31.75" width="222.25" height="30" as="geometry">
            <mxRectangle width="222.25" height="30" as="alternateBounds" />
          </mxGeometry>
        </mxCell>
        <mxCell id="MkIn_5rYK_BIbdpMxybD-4" style="edgeStyle=orthogonalEdgeStyle;rounded=0;orthogonalLoop=1;jettySize=auto;html=1;exitX=1;exitY=0.5;exitDx=0;exitDy=0;entryX=0;entryY=0.5;entryDx=0;entryDy=0;fontSize=12;startSize=8;endSize=8;" edge="1" parent="1" source="wAHOEPbOG4hZvs8cBgcl-163" target="wAHOEPbOG4hZvs8cBgcl-8">
          <mxGeometry relative="1" as="geometry">
            <Array as="points">
              <mxPoint x="200" y="388" />
              <mxPoint x="200" y="-31" />
            </Array>
          </mxGeometry>
        </mxCell>
        <mxCell id="MkIn_5rYK_BIbdpMxybD-6" style="edgeStyle=orthogonalEdgeStyle;rounded=0;orthogonalLoop=1;jettySize=auto;html=1;exitX=1;exitY=0.5;exitDx=0;exitDy=0;entryX=0;entryY=0.5;entryDx=0;entryDy=0;fontSize=12;startSize=8;endSize=8;" edge="1" parent="1" source="wAHOEPbOG4hZvs8cBgcl-191" target="wAHOEPbOG4hZvs8cBgcl-11">
          <mxGeometry relative="1" as="geometry">
            <Array as="points">
              <mxPoint x="230" y="690" />
              <mxPoint x="230" y="-1" />
            </Array>
          </mxGeometry>
        </mxCell>
        <mxCell id="MkIn_5rYK_BIbdpMxybD-7" style="edgeStyle=orthogonalEdgeStyle;rounded=0;orthogonalLoop=1;jettySize=auto;html=1;entryX=0.012;entryY=0.3;entryDx=0;entryDy=0;entryPerimeter=0;fontSize=12;startSize=8;endSize=8;" edge="1" parent="1" source="wAHOEPbOG4hZvs8cBgcl-120" target="wAHOEPbOG4hZvs8cBgcl-95">
          <mxGeometry relative="1" as="geometry">
            <Array as="points">
              <mxPoint x="664" y="388" />
              <mxPoint x="664" y="-67" />
            </Array>
          </mxGeometry>
        </mxCell>
        <mxCell id="MkIn_5rYK_BIbdpMxybD-10" value="" style="endArrow=classic;html=1;rounded=0;fontSize=12;startSize=8;endSize=8;" edge="1" parent="1">
          <mxGeometry width="50" height="50" relative="1" as="geometry">
            <mxPoint x="663" y="-64" as="sourcePoint" />
            <mxPoint x="583" y="-64" as="targetPoint" />
          </mxGeometry>
        </mxCell>
        <mxCell id="MkIn_5rYK_BIbdpMxybD-12" value="" style="endArrow=classic;html=1;rounded=0;fontSize=12;startSize=8;endSize=8;entryX=1.007;entryY=0.867;entryDx=0;entryDy=0;entryPerimeter=0;edgeStyle=elbowEdgeStyle;" edge="1" parent="1" target="wAHOEPbOG4hZvs8cBgcl-14">
          <mxGeometry width="50" height="50" relative="1" as="geometry">
            <mxPoint x="825" y="194" as="sourcePoint" />
            <mxPoint x="745" y="194" as="targetPoint" />
            <Array as="points">
              <mxPoint x="619" y="128" />
            </Array>
          </mxGeometry>
        </mxCell>
        <mxCell id="MkIn_5rYK_BIbdpMxybD-13" style="edgeStyle=orthogonalEdgeStyle;rounded=0;orthogonalLoop=1;jettySize=auto;html=1;fontSize=12;startSize=8;endSize=8;elbow=vertical;exitX=0.524;exitY=1.033;exitDx=0;exitDy=0;exitPerimeter=0;entryX=0;entryY=0.5;entryDx=0;entryDy=0;" edge="1" parent="1" source="wAHOEPbOG4hZvs8cBgcl-225" target="wAHOEPbOG4hZvs8cBgcl-67">
          <mxGeometry relative="1" as="geometry">
            <mxPoint x="768" y="522" as="sourcePoint" />
            <mxPoint x="-154" y="-14" as="targetPoint" />
            <Array as="points">
              <mxPoint x="829" y="524" />
              <mxPoint x="829" y="857" />
              <mxPoint x="-154" y="857" />
              <mxPoint x="-154" y="-1" />
            </Array>
          </mxGeometry>
        </mxCell>
        <mxCell id="MkIn_5rYK_BIbdpMxybD-14" value="&lt;b&gt;&lt;font style=&quot;font-size: 23px;&quot; color=&quot;#0433ff&quot;&gt;Dimensional OLAP ERD Model&amp;nbsp;&lt;/font&gt;&lt;/b&gt;" style="text;html=1;align=center;verticalAlign=middle;whiteSpace=wrap;rounded=0;fontSize=16;" vertex="1" parent="1">
          <mxGeometry x="355" y="-328" width="391" height="67" as="geometry" />
        </mxCell>
        <mxCell id="MkIn_5rYK_BIbdpMxybD-17" value="fact_appointments" style="shape=table;startSize=30;container=1;collapsible=1;childLayout=tableLayout;fixedRows=1;rowLines=0;fontStyle=1;align=center;resizeLast=1;html=1;" vertex="1" parent="1">
          <mxGeometry x="1035" y="-136" width="253" height="213.75" as="geometry" />
        </mxCell>
        <mxCell id="MkIn_5rYK_BIbdpMxybD-18" value="" style="shape=tableRow;horizontal=0;startSize=0;swimlaneHead=0;swimlaneBody=0;fillColor=none;collapsible=0;dropTarget=0;points=[[0,0.5],[1,0.5]];portConstraint=eastwest;top=0;left=0;right=0;bottom=1;" vertex="1" parent="MkIn_5rYK_BIbdpMxybD-17">
          <mxGeometry y="30" width="253" height="30" as="geometry" />
        </mxCell>
        <mxCell id="MkIn_5rYK_BIbdpMxybD-19" value="PK" style="shape=partialRectangle;connectable=0;fillColor=none;top=0;left=0;bottom=0;right=0;fontStyle=1;overflow=hidden;whiteSpace=wrap;html=1;" vertex="1" parent="MkIn_5rYK_BIbdpMxybD-18">
          <mxGeometry width="31.75" height="30" as="geometry">
            <mxRectangle width="31.75" height="30" as="alternateBounds" />
          </mxGeometry>
        </mxCell>
        <mxCell id="MkIn_5rYK_BIbdpMxybD-20" value="&lt;code style=&quot;font-weight: 400; text-decoration: none;&quot;&gt;appointment_id&lt;span style=&quot;white-space: pre;&quot;&gt;&#x9;(uuid)&lt;/span&gt;&lt;/code&gt;" style="shape=partialRectangle;connectable=0;fillColor=none;top=0;left=0;bottom=0;right=0;align=left;spacingLeft=6;fontStyle=5;overflow=hidden;whiteSpace=wrap;html=1;" vertex="1" parent="MkIn_5rYK_BIbdpMxybD-18">
          <mxGeometry x="31.75" width="221.25" height="30" as="geometry">
            <mxRectangle width="221.25" height="30" as="alternateBounds" />
          </mxGeometry>
        </mxCell>
        <mxCell id="MkIn_5rYK_BIbdpMxybD-21" value="" style="shape=tableRow;horizontal=0;startSize=0;swimlaneHead=0;swimlaneBody=0;fillColor=none;collapsible=0;dropTarget=0;points=[[0,0.5],[1,0.5]];portConstraint=eastwest;top=0;left=0;right=0;bottom=0;" vertex="1" parent="MkIn_5rYK_BIbdpMxybD-17">
          <mxGeometry y="60" width="253" height="30" as="geometry" />
        </mxCell>
        <mxCell id="MkIn_5rYK_BIbdpMxybD-22" value="FK" style="shape=partialRectangle;connectable=0;fillColor=none;top=0;left=0;bottom=0;right=0;editable=1;overflow=hidden;whiteSpace=wrap;html=1;" vertex="1" parent="MkIn_5rYK_BIbdpMxybD-21">
          <mxGeometry width="31.75" height="30" as="geometry">
            <mxRectangle width="31.75" height="30" as="alternateBounds" />
          </mxGeometry>
        </mxCell>
        <mxCell id="MkIn_5rYK_BIbdpMxybD-23" value="&lt;code&gt;patient_id&lt;span style=&quot;white-space: pre;&quot;&gt;&#x9;(uuid)&lt;/span&gt;&lt;/code&gt;" style="shape=partialRectangle;connectable=0;fillColor=none;top=0;left=0;bottom=0;right=0;align=left;spacingLeft=6;overflow=hidden;whiteSpace=wrap;html=1;" vertex="1" parent="MkIn_5rYK_BIbdpMxybD-21">
          <mxGeometry x="31.75" width="221.25" height="30" as="geometry">
            <mxRectangle width="221.25" height="30" as="alternateBounds" />
          </mxGeometry>
        </mxCell>
        <mxCell id="MkIn_5rYK_BIbdpMxybD-24" value="" style="shape=tableRow;horizontal=0;startSize=0;swimlaneHead=0;swimlaneBody=0;fillColor=none;collapsible=0;dropTarget=0;points=[[0,0.5],[1,0.5]];portConstraint=eastwest;top=0;left=0;right=0;bottom=0;" vertex="1" parent="MkIn_5rYK_BIbdpMxybD-17">
          <mxGeometry y="90" width="253" height="30" as="geometry" />
        </mxCell>
        <mxCell id="MkIn_5rYK_BIbdpMxybD-25" value="FK" style="shape=partialRectangle;connectable=0;fillColor=none;top=0;left=0;bottom=0;right=0;editable=1;overflow=hidden;whiteSpace=wrap;html=1;" vertex="1" parent="MkIn_5rYK_BIbdpMxybD-24">
          <mxGeometry width="31.75" height="30" as="geometry">
            <mxRectangle width="31.75" height="30" as="alternateBounds" />
          </mxGeometry>
        </mxCell>
        <mxCell id="MkIn_5rYK_BIbdpMxybD-26" value="&lt;code&gt;doctor_id&lt;/code&gt;&lt;span style=&quot;font-family: monospace; white-space: pre;&quot;&gt;&#x9;(varchar 50)&lt;/span&gt;" style="shape=partialRectangle;connectable=0;fillColor=none;top=0;left=0;bottom=0;right=0;align=left;spacingLeft=6;overflow=hidden;whiteSpace=wrap;html=1;" vertex="1" parent="MkIn_5rYK_BIbdpMxybD-24">
          <mxGeometry x="31.75" width="221.25" height="30" as="geometry">
            <mxRectangle width="221.25" height="30" as="alternateBounds" />
          </mxGeometry>
        </mxCell>
        <mxCell id="MkIn_5rYK_BIbdpMxybD-27" value="" style="shape=tableRow;horizontal=0;startSize=0;swimlaneHead=0;swimlaneBody=0;fillColor=none;collapsible=0;dropTarget=0;points=[[0,0.5],[1,0.5]];portConstraint=eastwest;top=0;left=0;right=0;bottom=0;" vertex="1" parent="MkIn_5rYK_BIbdpMxybD-17">
          <mxGeometry y="120" width="253" height="30" as="geometry" />
        </mxCell>
        <mxCell id="MkIn_5rYK_BIbdpMxybD-28" value="" style="shape=partialRectangle;connectable=0;fillColor=none;top=0;left=0;bottom=0;right=0;editable=1;overflow=hidden;whiteSpace=wrap;html=1;" vertex="1" parent="MkIn_5rYK_BIbdpMxybD-27">
          <mxGeometry width="31.75" height="30" as="geometry">
            <mxRectangle width="31.75" height="30" as="alternateBounds" />
          </mxGeometry>
        </mxCell>
        <mxCell id="MkIn_5rYK_BIbdpMxybD-29" value="&lt;code&gt;appointment_date&amp;nbsp;&lt;span style=&quot;white-space: pre;&quot;&gt;(date)&lt;/span&gt;&lt;/code&gt;" style="shape=partialRectangle;connectable=0;fillColor=none;top=0;left=0;bottom=0;right=0;align=left;spacingLeft=6;overflow=hidden;whiteSpace=wrap;html=1;" vertex="1" parent="MkIn_5rYK_BIbdpMxybD-27">
          <mxGeometry x="31.75" width="221.25" height="30" as="geometry">
            <mxRectangle width="221.25" height="30" as="alternateBounds" />
          </mxGeometry>
        </mxCell>
        <mxCell id="MkIn_5rYK_BIbdpMxybD-30" value="" style="shape=tableRow;horizontal=0;startSize=0;swimlaneHead=0;swimlaneBody=0;fillColor=none;collapsible=0;dropTarget=0;points=[[0,0.5],[1,0.5]];portConstraint=eastwest;top=0;left=0;right=0;bottom=0;" vertex="1" parent="MkIn_5rYK_BIbdpMxybD-17">
          <mxGeometry y="150" width="253" height="30" as="geometry" />
        </mxCell>
        <mxCell id="MkIn_5rYK_BIbdpMxybD-31" value="" style="shape=partialRectangle;connectable=0;fillColor=none;top=0;left=0;bottom=0;right=0;editable=1;overflow=hidden;whiteSpace=wrap;html=1;" vertex="1" parent="MkIn_5rYK_BIbdpMxybD-30">
          <mxGeometry width="31.75" height="30" as="geometry">
            <mxRectangle width="31.75" height="30" as="alternateBounds" />
          </mxGeometry>
        </mxCell>
        <mxCell id="MkIn_5rYK_BIbdpMxybD-32" value="&lt;span style=&quot;font-family: monospace;&quot;&gt;appointment_time.&amp;nbsp;&lt;/span&gt;&lt;span style=&quot;font-family: monospace; white-space: pre;&quot;&gt;(time)&lt;/span&gt;" style="shape=partialRectangle;connectable=0;fillColor=none;top=0;left=0;bottom=0;right=0;align=left;spacingLeft=6;overflow=hidden;whiteSpace=wrap;html=1;" vertex="1" parent="MkIn_5rYK_BIbdpMxybD-30">
          <mxGeometry x="31.75" width="221.25" height="30" as="geometry">
            <mxRectangle width="221.25" height="30" as="alternateBounds" />
          </mxGeometry>
        </mxCell>
        <mxCell id="MkIn_5rYK_BIbdpMxybD-33" value="" style="shape=tableRow;horizontal=0;startSize=0;swimlaneHead=0;swimlaneBody=0;fillColor=none;collapsible=0;dropTarget=0;points=[[0,0.5],[1,0.5]];portConstraint=eastwest;top=0;left=0;right=0;bottom=0;" vertex="1" parent="MkIn_5rYK_BIbdpMxybD-17">
          <mxGeometry y="180" width="253" height="30" as="geometry" />
        </mxCell>
        <mxCell id="MkIn_5rYK_BIbdpMxybD-34" value="" style="shape=partialRectangle;connectable=0;fillColor=none;top=0;left=0;bottom=0;right=0;editable=1;overflow=hidden;whiteSpace=wrap;html=1;" vertex="1" parent="MkIn_5rYK_BIbdpMxybD-33">
          <mxGeometry width="31.75" height="30" as="geometry">
            <mxRectangle width="31.75" height="30" as="alternateBounds" />
          </mxGeometry>
        </mxCell>
        <mxCell id="MkIn_5rYK_BIbdpMxybD-35" value="&lt;code&gt;&lt;code&gt;reason_for_visit&lt;/code&gt;&lt;span style=&quot;white-space: pre;&quot;&gt;(varchar 255)&lt;/span&gt;&lt;/code&gt;" style="shape=partialRectangle;connectable=0;fillColor=none;top=0;left=0;bottom=0;right=0;align=left;spacingLeft=6;overflow=hidden;whiteSpace=wrap;html=1;" vertex="1" parent="MkIn_5rYK_BIbdpMxybD-33">
          <mxGeometry x="31.75" width="221.25" height="30" as="geometry">
            <mxRectangle width="221.25" height="30" as="alternateBounds" />
          </mxGeometry>
        </mxCell>
        <mxCell id="MkIn_5rYK_BIbdpMxybD-39" style="edgeStyle=orthogonalEdgeStyle;rounded=0;orthogonalLoop=1;jettySize=auto;html=1;exitX=1;exitY=0.5;exitDx=0;exitDy=0;fontSize=12;startSize=8;endSize=8;" edge="1" parent="1">
          <mxGeometry relative="1" as="geometry">
            <mxPoint x="621" y="417" as="sourcePoint" />
            <mxPoint x="1035" y="-62" as="targetPoint" />
            <Array as="points">
              <mxPoint x="621" y="390" />
              <mxPoint x="663" y="390" />
              <mxPoint x="663" y="914" />
              <mxPoint x="986" y="914" />
              <mxPoint x="986" y="-62" />
            </Array>
          </mxGeometry>
        </mxCell>
        <mxCell id="MkIn_5rYK_BIbdpMxybD-40" style="edgeStyle=orthogonalEdgeStyle;rounded=0;orthogonalLoop=1;jettySize=auto;html=1;exitX=0;exitY=0.5;exitDx=0;exitDy=0;entryX=0;entryY=0.5;entryDx=0;entryDy=0;fontSize=12;startSize=8;endSize=8;" edge="1" parent="1" source="wAHOEPbOG4hZvs8cBgcl-163" target="MkIn_5rYK_BIbdpMxybD-24">
          <mxGeometry relative="1" as="geometry">
            <Array as="points">
              <mxPoint x="-112" y="388" />
              <mxPoint x="-112" y="955" />
              <mxPoint x="1009" y="955" />
              <mxPoint x="1009" y="-31" />
            </Array>
          </mxGeometry>
        </mxCell>
      </root>
    </mxGraphModel>
  </diagram>
  <diagram id="I_2V2im4Lwd52-b8NqPQ" name="Page-3">
    <mxGraphModel grid="0" page="0" gridSize="10" guides="1" tooltips="1" connect="1" arrows="1" fold="1" pageScale="1" pageWidth="827" pageHeight="1169" math="0" shadow="0">
      <root>
        <mxCell id="0" />
        <mxCell id="1" parent="0" />
      </root>
    </mxGraphModel>
  </diagram>
</mxfile>
